<?xml version="1.0" encoding="UTF-8" standalone="no"?>
<!-- Generator: Adobe Illustrator 16.0.0, SVG Export Plug-In . SVG Version: 6.00 Build 0)  -->

<svg
   version="1.1"
   id="Camada_1"
   x="0px"
   y="0px"
   width="300px"
   height="100px"
   viewBox="0 0 300 100"
   enable-background="new 0 0 300 100"
   xml:space="preserve"
   sodipodi:docname="logo (1).svg"
   inkscape:version="1.1.2 (b8e25be8, 2022-02-05)"
   xmlns:inkscape="http://www.inkscape.org/namespaces/inkscape"
   xmlns:sodipodi="http://sodipodi.sourceforge.net/DTD/sodipodi-0.dtd"
   xmlns:xlink="http://www.w3.org/1999/xlink"
   xmlns="http://www.w3.org/2000/svg"
   xmlns:svg="http://www.w3.org/2000/svg"><defs
   id="defs625" /><sodipodi:namedview
   id="namedview623"
   pagecolor="#ffffff"
   bordercolor="#666666"
   borderopacity="1.0"
   inkscape:pageshadow="2"
   inkscape:pageopacity="0.0"
   inkscape:pagecheckerboard="0"
   showgrid="false"
   inkscape:zoom="4.3133333"
   inkscape:cx="176.66151"
   inkscape:cy="56.916538"
   inkscape:window-width="1463"
   inkscape:window-height="859"
   inkscape:window-x="0"
   inkscape:window-y="38"
   inkscape:window-maximized="0"
   inkscape:current-layer="Camada_1" />
<g
   id="g494"
   transform="translate(0,-2)">
	<g
   id="g412">
		<g
   enable-background="new    "
   id="g362">
			<path
   d="m 78.308,38.982 c 1.325,-0.278 3.417,-0.487 5.543,-0.487 3.034,0 4.986,0.522 6.451,1.708 1.22,0.906 1.952,2.301 1.952,4.149 0,2.266 -1.499,4.253 -3.975,5.16 v 0.069 c 2.231,0.558 4.847,2.406 4.847,5.893 0,2.022 -0.802,3.557 -1.988,4.707 -1.639,1.499 -4.289,2.196 -8.124,2.196 -2.092,0 -3.696,-0.14 -4.707,-0.278 V 38.982 Z m 3.033,9.623 h 2.754 c 3.208,0 5.091,-1.673 5.091,-3.939 0,-2.755 -2.092,-3.835 -5.16,-3.835 -1.395,0 -2.197,0.104 -2.685,0.209 z m 0,11.263 c 0.593,0.104 1.464,0.139 2.545,0.139 3.138,0 6.032,-1.15 6.032,-4.567 0,-3.207 -2.754,-4.532 -6.067,-4.532 h -2.51 z"
   id="path334" />
			<path
   d="m 100.515,40.552 c 0.035,1.046 -0.732,1.883 -1.952,1.883 -1.081,0 -1.848,-0.837 -1.848,-1.883 0,-1.081 0.802,-1.918 1.918,-1.918 1.15,0 1.882,0.837 1.882,1.918 z M 97.099,62.169 V 45.294 h 3.068 v 16.875 z"
   id="path336" />
			<path
   d="m 120.527,53.592 c 0,6.241 -4.324,8.961 -8.403,8.961 -4.568,0 -8.089,-3.348 -8.089,-8.682 0,-5.648 3.696,-8.961 8.368,-8.961 4.847,0 8.124,3.522 8.124,8.682 z m -13.388,0.175 c 0,3.695 2.126,6.484 5.125,6.484 2.929,0 5.125,-2.754 5.125,-6.555 0,-2.859 -1.43,-6.485 -5.056,-6.485 -3.626,0 -5.194,3.348 -5.194,6.556 z"
   id="path338" />
			<path
   d="m 127.812,40.552 c 0.035,1.046 -0.732,1.883 -1.952,1.883 -1.081,0 -1.848,-0.837 -1.848,-1.883 0,-1.081 0.802,-1.918 1.918,-1.918 1.15,0 1.882,0.837 1.882,1.918 z m -3.417,21.617 V 45.294 h 3.068 v 16.875 z"
   id="path340" />
			<path
   d="m 132.552,49.861 c 0,-1.743 -0.035,-3.173 -0.14,-4.567 h 2.72 l 0.174,2.789 h 0.07 c 0.836,-1.604 2.789,-3.173 5.579,-3.173 2.336,0 5.962,1.395 5.962,7.183 v 10.076 h -3.068 v -9.728 c 0,-2.72 -1.011,-4.986 -3.905,-4.986 -2.022,0 -3.591,1.43 -4.114,3.139 -0.14,0.383 -0.209,0.906 -0.209,1.429 v 10.146 h -3.068 V 49.861 Z"
   id="path342" />
			<path
   d="M 152.214,62.169 V 47.63 h -2.371 v -2.336 h 2.371 v -0.802 c 0,-2.371 0.522,-4.533 1.952,-5.893 1.15,-1.116 2.686,-1.569 4.115,-1.569 1.08,0 2.021,0.244 2.614,0.488 l -0.418,2.371 c -0.454,-0.21 -1.081,-0.384 -1.952,-0.384 -2.615,0 -3.277,2.301 -3.277,4.881 v 0.907 h 4.078 v 2.336 h -4.078 v 14.539 h -3.034 z"
   id="path344" />
			<path
   d="m 176.898,53.592 c 0,6.241 -4.323,8.961 -8.402,8.961 -4.568,0 -8.09,-3.348 -8.09,-8.682 0,-5.648 3.696,-8.961 8.369,-8.961 4.846,0 8.123,3.522 8.123,8.682 z m -13.388,0.175 c 0,3.695 2.127,6.484 5.125,6.484 2.93,0 5.126,-2.754 5.126,-6.555 0,-2.859 -1.43,-6.485 -5.056,-6.485 -3.626,0 -5.195,3.348 -5.195,6.556 z"
   id="path346" />
			<path
   d="m 180.766,50.559 c 0,-1.987 -0.035,-3.696 -0.139,-5.265 h 2.684 l 0.105,3.312 h 0.139 c 0.768,-2.266 2.615,-3.695 4.673,-3.695 0.349,0 0.593,0.035 0.872,0.104 v 2.894 c -0.314,-0.069 -0.629,-0.104 -1.047,-0.104 -2.162,0 -3.695,1.639 -4.113,3.94 -0.07,0.418 -0.141,0.906 -0.141,1.43 v 8.995 h -3.033 V 50.559 Z"
   id="path348" />
			<path
   d="m 192.305,49.861 c 0,-1.743 -0.035,-3.173 -0.139,-4.567 h 2.684 l 0.141,2.72 h 0.104 c 0.941,-1.604 2.511,-3.104 5.301,-3.104 2.301,0 4.044,1.395 4.776,3.382 h 0.069 c 0.523,-0.941 1.186,-1.674 1.883,-2.196 1.012,-0.768 2.127,-1.186 3.73,-1.186 2.232,0 5.544,1.464 5.544,7.322 v 9.937 h -2.999 v -9.554 c 0,-3.242 -1.185,-5.194 -3.66,-5.194 -1.744,0 -3.104,1.29 -3.626,2.789 -0.14,0.418 -0.244,0.977 -0.244,1.534 V 62.169 H 202.87 V 52.058 c 0,-2.685 -1.186,-4.637 -3.521,-4.637 -1.918,0 -3.312,1.534 -3.801,3.067 -0.174,0.454 -0.243,0.977 -0.243,1.5 v 10.181 h -2.999 V 49.861 Z"
   id="path350" />
			<path
   d="m 230.725,62.169 -0.244,-2.127 h -0.104 c -0.941,1.325 -2.755,2.511 -5.161,2.511 -3.416,0 -5.16,-2.406 -5.16,-4.847 0,-4.079 3.627,-6.311 10.146,-6.276 v -0.349 c 0,-1.395 -0.384,-3.904 -3.835,-3.904 -1.569,0 -3.208,0.488 -4.394,1.255 l -0.697,-2.022 c 1.395,-0.906 3.417,-1.499 5.544,-1.499 5.16,0 6.415,3.521 6.415,6.903 v 6.311 c 0,1.465 0.07,2.895 0.279,4.045 h -2.789 z m -0.454,-8.612 c -3.348,-0.069 -7.148,0.523 -7.148,3.801 0,1.987 1.325,2.929 2.895,2.929 2.196,0 3.591,-1.395 4.079,-2.824 0.104,-0.313 0.175,-0.662 0.175,-0.977 v -2.929 z m 1.535,-15.55 -4.254,4.985 h -2.196 l 3.067,-4.985 z"
   id="path352" />
			<path
   d="m 241.74,40.447 v 4.847 h 4.393 v 2.336 h -4.393 v 9.1 c 0,2.092 0.593,3.277 2.301,3.277 0.802,0 1.395,-0.104 1.778,-0.209 l 0.14,2.302 c -0.593,0.244 -1.534,0.418 -2.72,0.418 -1.43,0 -2.58,-0.453 -3.312,-1.29 -0.871,-0.906 -1.186,-2.406 -1.186,-4.394 V 47.63 h -2.614 v -2.336 h 2.614 v -4.045 z"
   id="path354" />
			<path
   d="m 253,40.552 c 0.035,1.046 -0.732,1.883 -1.952,1.883 -1.081,0 -1.848,-0.837 -1.848,-1.883 0,-1.081 0.802,-1.918 1.917,-1.918 1.151,0 1.883,0.837 1.883,1.918 z m -3.417,21.617 V 45.294 h 3.068 v 16.875 z"
   id="path356" />
			<path
   d="m 269.77,61.541 c -0.802,0.419 -2.58,0.977 -4.847,0.977 -5.09,0 -8.402,-3.452 -8.402,-8.612 0,-5.194 3.556,-8.96 9.065,-8.96 1.812,0 3.416,0.453 4.253,0.871 l -0.697,2.371 c -0.732,-0.418 -1.883,-0.802 -3.556,-0.802 -3.871,0 -5.963,2.859 -5.963,6.381 0,3.904 2.511,6.311 5.857,6.311 1.744,0 2.895,-0.453 3.766,-0.837 z"
   id="path358" />
			<path
   d="m 282.703,62.169 -0.244,-2.127 h -0.104 c -0.941,1.325 -2.755,2.511 -5.16,2.511 -3.417,0 -5.16,-2.406 -5.16,-4.847 0,-4.079 3.626,-6.311 10.146,-6.276 v -0.349 c 0,-1.395 -0.384,-3.904 -3.835,-3.904 -1.569,0 -3.208,0.488 -4.394,1.255 l -0.697,-2.022 c 1.395,-0.906 3.417,-1.499 5.544,-1.499 5.16,0 6.415,3.521 6.415,6.903 v 6.311 c 0,1.465 0.07,2.895 0.279,4.045 h -2.79 z m -0.453,-8.612 c -3.348,-0.069 -7.148,0.523 -7.148,3.801 0,1.987 1.325,2.929 2.895,2.929 2.196,0 3.591,-1.395 4.079,-2.824 0.104,-0.313 0.175,-0.662 0.175,-0.977 v -2.929 z"
   id="path360" />
		</g>
		<g
   enable-background="new    "
   id="g382">
			<path
   d="m 125.123,72.536 c 0.036,2.099 1.376,2.963 2.928,2.963 1.111,0 1.782,-0.193 2.364,-0.44 l 0.265,1.111 c -0.547,0.247 -1.482,0.529 -2.84,0.529 -2.628,0 -4.198,-1.729 -4.198,-4.305 0,-2.576 1.517,-4.604 4.004,-4.604 2.787,0 3.528,2.452 3.528,4.021 0,0.317 -0.035,0.564 -0.053,0.724 h -5.998 z m 4.551,-1.111 c 0.018,-0.988 -0.406,-2.522 -2.152,-2.522 -1.57,0 -2.258,1.446 -2.381,2.522 z"
   id="path364" />
			<path
   d="m 136.671,74.652 c 0.688,0.424 1.693,0.776 2.752,0.776 1.57,0 2.487,-0.829 2.487,-2.028 0,-1.111 -0.635,-1.746 -2.24,-2.363 -1.94,-0.688 -3.14,-1.693 -3.14,-3.369 0,-1.853 1.535,-3.229 3.845,-3.229 1.217,0 2.099,0.282 2.628,0.582 l -0.423,1.253 c -0.388,-0.212 -1.182,-0.564 -2.258,-0.564 -1.623,0 -2.24,0.97 -2.24,1.781 0,1.111 0.723,1.658 2.364,2.293 2.011,0.776 3.034,1.746 3.034,3.492 0,1.835 -1.358,3.423 -4.163,3.423 -1.146,0 -2.399,-0.336 -3.034,-0.759 z"
   id="path366" />
			<path
   d="m 147.25,65.586 c 0.018,0.529 -0.37,0.953 -0.988,0.953 -0.547,0 -0.935,-0.424 -0.935,-0.953 0,-0.547 0.406,-0.97 0.97,-0.97 0.583,0 0.953,0.423 0.953,0.97 z m -1.728,10.936 v -8.537 h 1.552 v 8.537 z"
   id="path368" />
			<path
   d="m 149.436,74.935 c 0.458,0.3 1.27,0.618 2.046,0.618 1.129,0 1.658,-0.564 1.658,-1.271 0,-0.741 -0.441,-1.146 -1.588,-1.57 -1.535,-0.546 -2.258,-1.393 -2.258,-2.416 0,-1.376 1.111,-2.505 2.945,-2.505 0.865,0 1.623,0.247 2.1,0.529 l -0.389,1.129 c -0.335,-0.212 -0.952,-0.494 -1.746,-0.494 -0.917,0 -1.429,0.529 -1.429,1.164 0,0.706 0.512,1.023 1.623,1.446 1.481,0.564 2.24,1.306 2.24,2.576 0,1.499 -1.165,2.558 -3.192,2.558 -0.936,0 -1.8,-0.229 -2.399,-0.582 z"
   id="path370" />
			<path
   d="m 158.5,65.533 v 2.452 h 2.223 v 1.182 H 158.5 v 4.604 c 0,1.059 0.3,1.658 1.164,1.658 0.405,0 0.705,-0.053 0.899,-0.105 l 0.07,1.164 c -0.3,0.123 -0.776,0.212 -1.376,0.212 -0.723,0 -1.305,-0.229 -1.676,-0.653 -0.44,-0.458 -0.6,-1.217 -0.6,-2.223 v -4.656 h -1.322 v -1.182 h 1.322 v -2.047 z"
   id="path372" />
			<path
   d="m 163.225,72.536 c 0.035,2.099 1.375,2.963 2.928,2.963 1.111,0 1.781,-0.193 2.363,-0.44 l 0.266,1.111 c -0.547,0.247 -1.482,0.529 -2.841,0.529 -2.628,0 -4.198,-1.729 -4.198,-4.305 0,-2.576 1.518,-4.604 4.004,-4.604 2.787,0 3.528,2.452 3.528,4.021 0,0.317 -0.035,0.564 -0.053,0.724 h -5.997 z m 4.55,-1.111 c 0.018,-0.988 -0.406,-2.522 -2.152,-2.522 -1.57,0 -2.258,1.446 -2.381,2.522 z"
   id="path374" />
			<path
   d="m 171.193,70.296 c 0,-0.882 -0.018,-1.605 -0.07,-2.311 h 1.357 l 0.071,1.376 h 0.053 c 0.477,-0.812 1.271,-1.57 2.681,-1.57 1.164,0 2.047,0.706 2.417,1.711 h 0.035 c 0.265,-0.477 0.601,-0.847 0.952,-1.111 0.512,-0.388 1.076,-0.6 1.889,-0.6 1.129,0 2.804,0.741 2.804,3.704 v 5.027 h -1.517 v -4.833 c 0,-1.641 -0.6,-2.628 -1.852,-2.628 -0.883,0 -1.57,0.652 -1.835,1.411 -0.071,0.211 -0.124,0.493 -0.124,0.775 v 5.274 h -1.517 v -5.115 c 0,-1.358 -0.6,-2.346 -1.782,-2.346 -0.97,0 -1.675,0.775 -1.922,1.552 -0.088,0.229 -0.123,0.494 -0.123,0.759 v 5.15 h -1.518 v -6.225 z"
   id="path376" />
			<path
   d="m 190.626,76.522 -0.124,-1.076 h -0.053 c -0.477,0.671 -1.394,1.271 -2.61,1.271 -1.729,0 -2.61,-1.218 -2.61,-2.452 0,-2.063 1.834,-3.192 5.133,-3.175 v -0.177 c 0,-0.705 -0.194,-1.976 -1.94,-1.976 -0.794,0 -1.623,0.247 -2.223,0.635 l -0.353,-1.022 c 0.705,-0.459 1.729,-0.759 2.805,-0.759 2.61,0 3.246,1.781 3.246,3.492 v 3.193 c 0,0.74 0.035,1.464 0.141,2.046 h -1.412 z m -0.23,-4.356 c -1.693,-0.036 -3.616,0.265 -3.616,1.922 0,1.006 0.671,1.482 1.464,1.482 1.111,0 1.817,-0.706 2.064,-1.429 0.053,-0.159 0.088,-0.336 0.088,-0.494 v -1.481 z"
   id="path378" />
			<path
   d="m 194.186,74.935 c 0.458,0.3 1.27,0.618 2.045,0.618 1.129,0 1.658,-0.564 1.658,-1.271 0,-0.741 -0.44,-1.146 -1.587,-1.57 -1.534,-0.546 -2.258,-1.393 -2.258,-2.416 0,-1.376 1.111,-2.505 2.945,-2.505 0.864,0 1.623,0.247 2.099,0.529 l -0.387,1.129 c -0.336,-0.212 -0.953,-0.494 -1.747,-0.494 -0.917,0 -1.429,0.529 -1.429,1.164 0,0.706 0.512,1.023 1.623,1.446 1.481,0.564 2.24,1.306 2.24,2.576 0,1.499 -1.164,2.558 -3.193,2.558 -0.935,0 -1.799,-0.229 -2.398,-0.582 z"
   id="path380" />
		</g>
		<g
   enable-background="new    "
   id="g410">
			<path
   d="m 165.844,33.022 h 0.823 v 5.686 h 2.725 v 0.69 h -3.548 z"
   id="path384" />
			<path
   d="m 172.816,39.398 -0.066,-0.577 h -0.028 c -0.255,0.359 -0.747,0.682 -1.399,0.682 -0.928,0 -1.4,-0.653 -1.4,-1.315 0,-1.106 0.983,-1.712 2.752,-1.703 V 36.39 c 0,-0.378 -0.104,-1.06 -1.04,-1.06 -0.426,0 -0.87,0.133 -1.192,0.341 l -0.189,-0.549 c 0.379,-0.246 0.928,-0.406 1.505,-0.406 1.399,0 1.741,0.955 1.741,1.873 v 1.712 c 0,0.397 0.019,0.785 0.075,1.098 h -0.759 z m -0.123,-2.336 c -0.908,-0.019 -1.939,0.142 -1.939,1.031 0,0.539 0.359,0.795 0.785,0.795 0.596,0 0.975,-0.379 1.107,-0.767 0.027,-0.085 0.047,-0.18 0.047,-0.265 z"
   id="path386" />
			<path
   d="m 174.803,39.398 c 0.02,-0.312 0.038,-0.775 0.038,-1.183 v -5.534 h 0.823 v 2.876 h 0.02 c 0.293,-0.511 0.822,-0.842 1.561,-0.842 1.135,0 1.939,0.945 1.93,2.337 0,1.636 -1.031,2.45 -2.053,2.45 -0.662,0 -1.192,-0.256 -1.533,-0.861 h -0.027 l -0.039,0.757 h -0.72 z m 0.861,-1.835 c 0,0.104 0.02,0.208 0.038,0.303 0.161,0.577 0.644,0.974 1.249,0.974 0.87,0 1.391,-0.709 1.391,-1.759 0,-0.918 -0.474,-1.703 -1.363,-1.703 -0.566,0 -1.097,0.388 -1.268,1.021 -0.019,0.095 -0.047,0.208 -0.047,0.341 z"
   id="path388" />
			<path
   d="m 184.368,37.071 c 0,1.693 -1.173,2.432 -2.28,2.432 -1.239,0 -2.195,-0.908 -2.195,-2.356 0,-1.532 1.004,-2.431 2.271,-2.431 1.315,0 2.204,0.955 2.204,2.355 z m -3.633,0.047 c 0,1.003 0.577,1.76 1.391,1.76 0.794,0 1.391,-0.747 1.391,-1.778 0,-0.775 -0.388,-1.76 -1.372,-1.76 -0.984,0 -1.41,0.908 -1.41,1.778 z"
   id="path390" />
			<path
   d="m 185.418,36.248 c 0,-0.539 -0.01,-1.003 -0.037,-1.429 h 0.729 l 0.027,0.899 h 0.038 c 0.208,-0.615 0.71,-1.003 1.269,-1.003 0.094,0 0.16,0.009 0.236,0.028 v 0.785 c -0.086,-0.02 -0.171,-0.028 -0.284,-0.028 -0.587,0 -1.003,0.444 -1.116,1.068 -0.02,0.114 -0.038,0.246 -0.038,0.389 v 2.44 h -0.823 v -3.149 z"
   id="path392" />
			<path
   d="m 191,39.398 -0.066,-0.577 h -0.028 c -0.255,0.359 -0.747,0.682 -1.399,0.682 -0.928,0 -1.4,-0.653 -1.4,-1.315 0,-1.106 0.983,-1.712 2.752,-1.703 V 36.39 c 0,-0.378 -0.104,-1.06 -1.04,-1.06 -0.426,0 -0.87,0.133 -1.192,0.341 l -0.189,-0.549 c 0.379,-0.246 0.928,-0.406 1.505,-0.406 1.399,0 1.741,0.955 1.741,1.873 v 1.712 c 0,0.397 0.019,0.785 0.075,1.098 H 191 Z m -0.123,-2.336 c -0.908,-0.019 -1.939,0.142 -1.939,1.031 0,0.539 0.359,0.795 0.785,0.795 0.596,0 0.975,-0.379 1.107,-0.767 0.027,-0.085 0.047,-0.18 0.047,-0.265 z"
   id="path394" />
			<path
   d="m 193.99,33.505 v 1.314 h 1.191 v 0.634 h -1.191 v 2.47 c 0,0.567 0.16,0.889 0.624,0.889 0.218,0 0.378,-0.028 0.482,-0.057 l 0.038,0.625 c -0.161,0.065 -0.416,0.113 -0.738,0.113 -0.388,0 -0.7,-0.123 -0.898,-0.351 -0.236,-0.245 -0.322,-0.652 -0.322,-1.191 v -2.498 h -0.709 v -0.634 h 0.709 v -1.097 z"
   id="path396" />
			<path
   d="m 200.205,37.071 c 0,1.693 -1.173,2.432 -2.279,2.432 -1.24,0 -2.195,-0.908 -2.195,-2.356 0,-1.532 1.003,-2.431 2.271,-2.431 1.314,0 2.203,0.955 2.203,2.355 z m -3.633,0.047 c 0,1.003 0.577,1.76 1.391,1.76 0.795,0 1.391,-0.747 1.391,-1.778 0,-0.775 -0.388,-1.76 -1.371,-1.76 -0.985,0 -1.411,0.908 -1.411,1.778 z m 2.64,-4.275 -1.154,1.353 h -0.596 l 0.833,-1.353 z"
   id="path398" />
			<path
   d="m 201.256,36.248 c 0,-0.539 -0.01,-1.003 -0.038,-1.429 h 0.729 l 0.028,0.899 h 0.037 c 0.209,-0.615 0.71,-1.003 1.269,-1.003 0.095,0 0.161,0.009 0.236,0.028 v 0.785 c -0.085,-0.02 -0.171,-0.028 -0.284,-0.028 -0.586,0 -1.002,0.444 -1.116,1.068 -0.019,0.114 -0.038,0.246 -0.038,0.389 v 2.44 h -0.822 v -3.149 z"
   id="path400" />
			<path
   d="m 205.314,33.533 c 0.01,0.283 -0.199,0.511 -0.529,0.511 -0.294,0 -0.502,-0.228 -0.502,-0.511 0,-0.294 0.218,-0.521 0.521,-0.521 0.311,10e-4 0.51,0.227 0.51,0.521 z m -0.927,5.865 v -4.579 h 0.833 v 4.579 z"
   id="path402" />
			<path
   d="m 210.744,37.071 c 0,1.693 -1.173,2.432 -2.279,2.432 -1.24,0 -2.195,-0.908 -2.195,-2.356 0,-1.532 1.003,-2.431 2.271,-2.431 1.314,0 2.203,0.955 2.203,2.355 z m -3.633,0.047 c 0,1.003 0.577,1.76 1.391,1.76 0.795,0 1.391,-0.747 1.391,-1.778 0,-0.775 -0.388,-1.76 -1.371,-1.76 -0.985,0 -1.411,0.908 -1.411,1.778 z"
   id="path404" />
			<path
   d="m 217.755,32.682 v 5.534 c 0,0.407 0.01,0.87 0.038,1.183 h -0.748 l -0.037,-0.795 h -0.02 c -0.255,0.511 -0.813,0.899 -1.561,0.899 -1.107,0 -1.959,-0.937 -1.959,-2.328 -0.009,-1.522 0.938,-2.459 2.054,-2.459 0.7,0 1.173,0.331 1.381,0.7 h 0.019 v -2.734 h 0.833 z m -0.833,4.002 c 0,-0.104 -0.009,-0.246 -0.037,-0.351 -0.123,-0.529 -0.577,-0.965 -1.201,-0.965 -0.861,0 -1.372,0.757 -1.372,1.77 0,0.927 0.454,1.693 1.353,1.693 0.559,0 1.069,-0.369 1.221,-0.993 0.028,-0.114 0.037,-0.228 0.037,-0.36 v -0.794 z"
   id="path406" />
			<path
   d="m 219.6,37.261 c 0.02,1.125 0.738,1.589 1.57,1.589 0.597,0 0.956,-0.104 1.268,-0.236 l 0.143,0.596 c -0.293,0.133 -0.795,0.284 -1.523,0.284 -1.409,0 -2.252,-0.927 -2.252,-2.309 0,-1.381 0.814,-2.469 2.148,-2.469 1.494,0 1.892,1.314 1.892,2.156 0,0.171 -0.019,0.303 -0.028,0.389 z m 2.441,-0.597 c 0.01,-0.529 -0.218,-1.353 -1.154,-1.353 -0.842,0 -1.211,0.775 -1.277,1.353 z"
   id="path408" />
		</g>
	</g>
	<g
   id="g492">
		<g
   enable-background="new    "
   id="g442">
			<path
   fill="#ffffff"
   d="m 77.605,38.481 c 1.325,-0.278 3.417,-0.487 5.543,-0.487 3.034,0 4.986,0.522 6.451,1.708 1.22,0.906 1.952,2.301 1.952,4.149 0,2.266 -1.499,4.253 -3.975,5.16 v 0.069 c 2.231,0.558 4.847,2.406 4.847,5.893 0,2.022 -0.802,3.557 -1.988,4.707 -1.639,1.499 -4.289,2.196 -8.124,2.196 -2.092,0 -3.696,-0.14 -4.707,-0.278 V 38.481 Z m 3.033,9.623 h 2.754 c 3.208,0 5.091,-1.673 5.091,-3.939 0,-2.755 -2.092,-3.835 -5.16,-3.835 -1.395,0 -2.197,0.104 -2.685,0.209 z m 0,11.263 c 0.593,0.104 1.464,0.139 2.545,0.139 3.138,0 6.032,-1.15 6.032,-4.567 0,-3.207 -2.754,-4.532 -6.067,-4.532 h -2.51 v 8.96 z"
   id="path414" />
			<path
   fill="#ffffff"
   d="m 99.812,40.051 c 0.035,1.046 -0.732,1.883 -1.952,1.883 -1.081,0 -1.848,-0.837 -1.848,-1.883 0,-1.081 0.802,-1.918 1.918,-1.918 1.15,0 1.882,0.837 1.882,1.918 z M 96.396,61.668 V 44.793 h 3.068 v 16.875 z"
   id="path416" />
			<path
   fill="#ffffff"
   d="m 119.824,53.091 c 0,6.241 -4.324,8.961 -8.403,8.961 -4.568,0 -8.089,-3.348 -8.089,-8.682 0,-5.648 3.696,-8.961 8.368,-8.961 4.846,0 8.124,3.522 8.124,8.682 z m -13.388,0.175 c 0,3.695 2.126,6.484 5.125,6.484 2.929,0 5.125,-2.754 5.125,-6.555 0,-2.859 -1.43,-6.485 -5.056,-6.485 -3.626,0 -5.194,3.348 -5.194,6.556 z"
   id="path418" />
			<path
   fill="#ffffff"
   d="m 127.108,40.051 c 0.035,1.046 -0.732,1.883 -1.952,1.883 -1.081,0 -1.848,-0.837 -1.848,-1.883 0,-1.081 0.802,-1.918 1.918,-1.918 1.15,0 1.882,0.837 1.882,1.918 z m -3.416,21.617 V 44.793 h 3.068 v 16.875 z"
   id="path420" />
			<path
   fill="#ffffff"
   d="m 131.849,49.36 c 0,-1.743 -0.035,-3.173 -0.14,-4.567 h 2.72 l 0.174,2.789 h 0.07 c 0.836,-1.604 2.789,-3.173 5.579,-3.173 2.336,0 5.962,1.395 5.962,7.183 v 10.076 h -3.068 V 51.94 c 0,-2.72 -1.011,-4.986 -3.905,-4.986 -2.022,0 -3.591,1.43 -4.114,3.139 -0.14,0.383 -0.209,0.906 -0.209,1.429 V 61.668 H 131.85 V 49.36 Z"
   id="path422" />
			<path
   fill="#ffffff"
   d="M 151.511,61.668 V 47.129 h -2.371 v -2.336 h 2.371 v -0.802 c 0,-2.371 0.522,-4.533 1.952,-5.893 1.15,-1.116 2.686,-1.569 4.115,-1.569 1.08,0 2.021,0.244 2.614,0.488 l -0.418,2.371 c -0.454,-0.21 -1.081,-0.384 -1.952,-0.384 -2.615,0 -3.277,2.301 -3.277,4.881 v 0.907 h 4.078 v 2.336 h -4.078 v 14.539 h -3.034 z"
   id="path424" />
			<path
   fill="#ffffff"
   d="m 176.195,53.091 c 0,6.241 -4.323,8.961 -8.402,8.961 -4.568,0 -8.09,-3.348 -8.09,-8.682 0,-5.648 3.696,-8.961 8.369,-8.961 4.846,0 8.123,3.522 8.123,8.682 z m -13.388,0.175 c 0,3.695 2.127,6.484 5.125,6.484 2.93,0 5.126,-2.754 5.126,-6.555 0,-2.859 -1.43,-6.485 -5.056,-6.485 -3.626,0 -5.195,3.348 -5.195,6.556 z"
   id="path426" />
			<path
   fill="#ffffff"
   d="m 180.062,50.058 c 0,-1.987 -0.035,-3.696 -0.139,-5.265 h 2.684 l 0.105,3.312 h 0.139 c 0.768,-2.266 2.615,-3.695 4.673,-3.695 0.349,0 0.593,0.035 0.872,0.104 v 2.894 c -0.314,-0.069 -0.629,-0.104 -1.047,-0.104 -2.162,0 -3.695,1.639 -4.113,3.94 -0.07,0.418 -0.141,0.906 -0.141,1.43 v 8.995 h -3.033 V 50.058 Z"
   id="path428" />
			<path
   fill="#ffffff"
   d="m 191.602,49.36 c 0,-1.743 -0.035,-3.173 -0.139,-4.567 h 2.684 l 0.141,2.72 h 0.104 c 0.941,-1.604 2.511,-3.104 5.301,-3.104 2.301,0 4.044,1.395 4.776,3.382 h 0.069 c 0.523,-0.941 1.186,-1.674 1.883,-2.196 1.012,-0.768 2.127,-1.186 3.73,-1.186 2.232,0 5.544,1.464 5.544,7.322 v 9.937 h -2.999 v -9.554 c 0,-3.242 -1.185,-5.194 -3.66,-5.194 -1.744,0 -3.104,1.29 -3.626,2.789 -0.14,0.418 -0.244,0.977 -0.244,1.534 v 10.425 h -2.999 V 51.557 c 0,-2.685 -1.186,-4.637 -3.521,-4.637 -1.918,0 -3.312,1.534 -3.801,3.067 -0.174,0.454 -0.243,0.977 -0.243,1.5 v 10.181 h -2.999 V 49.36 Z"
   id="path430" />
			<path
   fill="#ffffff"
   d="m 230.021,61.668 -0.244,-2.127 h -0.104 c -0.941,1.325 -2.755,2.511 -5.161,2.511 -3.416,0 -5.16,-2.406 -5.16,-4.847 0,-4.079 3.627,-6.311 10.146,-6.276 V 50.58 c 0,-1.395 -0.384,-3.904 -3.835,-3.904 -1.569,0 -3.208,0.488 -4.394,1.255 l -0.697,-2.022 c 1.395,-0.906 3.417,-1.499 5.544,-1.499 5.16,0 6.415,3.521 6.415,6.903 v 6.311 c 0,1.465 0.07,2.895 0.279,4.045 h -2.789 z m -0.453,-8.612 c -3.348,-0.069 -7.148,0.523 -7.148,3.801 0,1.987 1.325,2.929 2.895,2.929 2.196,0 3.591,-1.395 4.079,-2.824 0.104,-0.313 0.175,-0.662 0.175,-0.977 v -2.929 z m 1.535,-15.55 -4.254,4.985 h -2.196 l 3.067,-4.985 z"
   id="path432" />
			<path
   fill="#ffffff"
   d="m 241.037,39.946 v 4.847 h 4.393 v 2.336 h -4.393 v 9.1 c 0,2.092 0.593,3.277 2.301,3.277 0.802,0 1.395,-0.104 1.778,-0.209 l 0.14,2.302 c -0.593,0.244 -1.534,0.418 -2.72,0.418 -1.43,0 -2.58,-0.453 -3.312,-1.29 -0.871,-0.906 -1.186,-2.406 -1.186,-4.394 v -9.204 h -2.614 v -2.336 h 2.614 v -4.045 z"
   id="path434" />
			<path
   fill="#ffffff"
   d="m 252.297,40.051 c 0.035,1.046 -0.732,1.883 -1.952,1.883 -1.081,0 -1.848,-0.837 -1.848,-1.883 0,-1.081 0.802,-1.918 1.917,-1.918 1.15,0 1.883,0.837 1.883,1.918 z M 248.88,61.668 V 44.793 h 3.068 v 16.875 z"
   id="path436" />
			<path
   fill="#ffffff"
   d="m 269.066,61.04 c -0.802,0.419 -2.58,0.977 -4.847,0.977 -5.09,0 -8.402,-3.452 -8.402,-8.612 0,-5.194 3.556,-8.96 9.065,-8.96 1.812,0 3.416,0.453 4.253,0.871 l -0.697,2.371 c -0.732,-0.418 -1.883,-0.802 -3.556,-0.802 -3.871,0 -5.963,2.859 -5.963,6.381 0,3.904 2.511,6.311 5.857,6.311 1.744,0 2.895,-0.453 3.766,-0.837 z"
   id="path438" />
			<path
   fill="#ffffff"
   d="m 282,61.668 -0.244,-2.127 h -0.104 c -0.941,1.325 -2.755,2.511 -5.16,2.511 -3.417,0 -5.16,-2.406 -5.16,-4.847 0,-4.079 3.626,-6.311 10.146,-6.276 V 50.58 c 0,-1.395 -0.384,-3.904 -3.835,-3.904 -1.569,0 -3.208,0.488 -4.394,1.255 l -0.697,-2.022 c 1.395,-0.906 3.417,-1.499 5.544,-1.499 5.16,0 6.415,3.521 6.415,6.903 v 6.311 c 0,1.465 0.07,2.895 0.279,4.045 H 282 Z m -0.453,-8.612 c -3.348,-0.069 -7.148,0.523 -7.148,3.801 0,1.987 1.325,2.929 2.895,2.929 2.196,0 3.591,-1.395 4.079,-2.824 0.104,-0.313 0.175,-0.662 0.175,-0.977 v -2.929 z"
   id="path440" />
		</g>
		<g
   enable-background="new    "
   id="g462">
			<path
   fill="#ffffff"
   d="m 124.419,72.035 c 0.036,2.099 1.376,2.963 2.928,2.963 1.111,0 1.782,-0.193 2.364,-0.44 l 0.265,1.111 c -0.547,0.247 -1.482,0.529 -2.84,0.529 -2.628,0 -4.198,-1.729 -4.198,-4.305 0,-2.576 1.517,-4.604 4.004,-4.604 2.787,0 3.528,2.452 3.528,4.021 0,0.317 -0.035,0.564 -0.053,0.724 h -5.998 z m 4.551,-1.111 c 0.018,-0.988 -0.406,-2.522 -2.152,-2.522 -1.57,0 -2.258,1.446 -2.381,2.522 z"
   id="path444" />
			<path
   fill="#ffffff"
   d="m 135.967,74.151 c 0.688,0.424 1.693,0.776 2.752,0.776 1.57,0 2.487,-0.829 2.487,-2.028 0,-1.111 -0.635,-1.746 -2.24,-2.363 -1.94,-0.688 -3.14,-1.693 -3.14,-3.369 0,-1.853 1.535,-3.229 3.845,-3.229 1.217,0 2.099,0.282 2.628,0.582 l -0.423,1.253 c -0.388,-0.212 -1.182,-0.564 -2.258,-0.564 -1.623,0 -2.24,0.97 -2.24,1.781 0,1.111 0.723,1.658 2.364,2.293 2.011,0.776 3.034,1.746 3.034,3.492 0,1.835 -1.358,3.423 -4.163,3.423 -1.146,0 -2.399,-0.336 -3.034,-0.759 z"
   id="path446" />
			<path
   fill="#ffffff"
   d="m 146.547,65.085 c 0.018,0.529 -0.37,0.953 -0.988,0.953 -0.547,0 -0.935,-0.424 -0.935,-0.953 0,-0.547 0.406,-0.97 0.97,-0.97 0.583,0 0.953,0.423 0.953,0.97 z m -1.729,10.936 v -8.537 h 1.552 v 8.537 z"
   id="path448" />
			<path
   fill="#ffffff"
   d="m 148.732,74.434 c 0.458,0.3 1.27,0.618 2.046,0.618 1.129,0 1.658,-0.564 1.658,-1.271 0,-0.741 -0.44,-1.146 -1.587,-1.57 -1.535,-0.546 -2.258,-1.393 -2.258,-2.416 0,-1.376 1.111,-2.505 2.946,-2.505 0.864,0 1.623,0.247 2.099,0.529 l -0.388,1.129 c -0.336,-0.212 -0.953,-0.494 -1.746,-0.494 -0.918,0 -1.429,0.529 -1.429,1.164 0,0.706 0.511,1.023 1.623,1.446 1.482,0.564 2.24,1.306 2.24,2.576 0,1.499 -1.164,2.558 -3.192,2.558 -0.935,0 -1.799,-0.229 -2.399,-0.582 z"
   id="path450" />
			<path
   fill="#ffffff"
   d="m 157.796,65.032 v 2.452 h 2.223 v 1.182 h -2.223 v 4.604 c 0,1.059 0.3,1.658 1.165,1.658 0.404,0 0.705,-0.053 0.898,-0.105 l 0.07,1.164 c -0.299,0.123 -0.775,0.212 -1.375,0.212 -0.723,0 -1.305,-0.229 -1.676,-0.653 -0.441,-0.458 -0.6,-1.217 -0.6,-2.223 v -4.656 h -1.323 v -1.182 h 1.323 v -2.047 z"
   id="path452" />
			<path
   fill="#ffffff"
   d="m 162.521,72.035 c 0.036,2.099 1.376,2.963 2.929,2.963 1.111,0 1.781,-0.193 2.363,-0.44 l 0.265,1.111 c -0.547,0.247 -1.481,0.529 -2.841,0.529 -2.627,0 -4.197,-1.729 -4.197,-4.305 0,-2.576 1.518,-4.604 4.004,-4.604 2.787,0 3.527,2.452 3.527,4.021 0,0.317 -0.035,0.564 -0.053,0.724 h -5.997 z m 4.551,-1.111 c 0.018,-0.988 -0.406,-2.522 -2.152,-2.522 -1.57,0 -2.258,1.446 -2.382,2.522 z"
   id="path454" />
			<path
   fill="#ffffff"
   d="m 170.49,69.795 c 0,-0.882 -0.018,-1.605 -0.07,-2.311 h 1.357 l 0.07,1.376 h 0.053 c 0.477,-0.812 1.271,-1.57 2.682,-1.57 1.164,0 2.047,0.706 2.416,1.711 h 0.035 c 0.266,-0.477 0.601,-0.847 0.953,-1.111 0.512,-0.388 1.076,-0.6 1.888,-0.6 1.129,0 2.804,0.741 2.804,3.704 v 5.027 h -1.516 v -4.833 c 0,-1.641 -0.6,-2.628 -1.853,-2.628 -0.882,0 -1.569,0.652 -1.835,1.411 -0.07,0.211 -0.123,0.493 -0.123,0.775 v 5.274 h -1.518 v -5.115 c 0,-1.358 -0.6,-2.346 -1.781,-2.346 -0.971,0 -1.676,0.775 -1.922,1.552 -0.089,0.229 -0.124,0.494 -0.124,0.759 v 5.15 h -1.517 v -6.225 z"
   id="path456" />
			<path
   fill="#ffffff"
   d="m 189.922,76.021 -0.123,-1.076 h -0.053 c -0.477,0.671 -1.395,1.271 -2.611,1.271 -1.729,0 -2.61,-1.218 -2.61,-2.452 0,-2.063 1.835,-3.192 5.134,-3.175 v -0.177 c 0,-0.705 -0.195,-1.976 -1.941,-1.976 -0.793,0 -1.623,0.247 -2.223,0.635 l -0.352,-1.022 c 0.705,-0.459 1.729,-0.759 2.805,-0.759 2.609,0 3.245,1.781 3.245,3.492 v 3.193 c 0,0.74 0.035,1.464 0.142,2.046 h -1.413 z m -0.229,-4.356 c -1.693,-0.036 -3.617,0.265 -3.617,1.922 0,1.006 0.671,1.482 1.465,1.482 1.111,0 1.816,-0.706 2.063,-1.429 0.054,-0.159 0.089,-0.336 0.089,-0.494 z"
   id="path458" />
			<path
   fill="#ffffff"
   d="m 193.481,74.434 c 0.458,0.3 1.271,0.618 2.046,0.618 1.129,0 1.658,-0.564 1.658,-1.271 0,-0.741 -0.441,-1.146 -1.588,-1.57 -1.534,-0.546 -2.258,-1.393 -2.258,-2.416 0,-1.376 1.111,-2.505 2.945,-2.505 0.865,0 1.623,0.247 2.1,0.529 l -0.388,1.129 c -0.335,-0.212 -0.952,-0.494 -1.747,-0.494 -0.916,0 -1.428,0.529 -1.428,1.164 0,0.706 0.512,1.023 1.623,1.446 1.48,0.564 2.24,1.306 2.24,2.576 0,1.499 -1.165,2.558 -3.193,2.558 -0.936,0 -1.799,-0.229 -2.398,-0.582 z"
   id="path460" />
		</g>
		<g
   enable-background="new    "
   id="g490">
			<path
   fill="#ffffff"
   d="m 165.141,32.521 h 0.823 v 5.686 h 2.725 v 0.69 h -3.548 z"
   id="path464" />
			<path
   fill="#ffffff"
   d="m 172.113,38.897 -0.066,-0.577 h -0.028 c -0.255,0.359 -0.747,0.682 -1.399,0.682 -0.928,0 -1.4,-0.653 -1.4,-1.315 0,-1.106 0.983,-1.712 2.752,-1.703 v -0.095 c 0,-0.378 -0.104,-1.06 -1.04,-1.06 -0.426,0 -0.87,0.133 -1.192,0.341 l -0.189,-0.549 c 0.379,-0.246 0.928,-0.406 1.505,-0.406 1.399,0 1.741,0.955 1.741,1.873 V 37.8 c 0,0.397 0.019,0.785 0.075,1.098 h -0.759 z m -0.123,-2.336 c -0.908,-0.019 -1.939,0.142 -1.939,1.031 0,0.539 0.359,0.795 0.785,0.795 0.596,0 0.975,-0.379 1.107,-0.767 0.027,-0.085 0.047,-0.18 0.047,-0.265 z"
   id="path466" />
			<path
   fill="#ffffff"
   d="m 174.1,38.897 c 0.02,-0.312 0.038,-0.775 0.038,-1.183 V 32.18 h 0.823 v 2.876 h 0.02 c 0.293,-0.511 0.822,-0.842 1.561,-0.842 1.135,0 1.939,0.945 1.93,2.337 0,1.636 -1.031,2.45 -2.053,2.45 -0.662,0 -1.192,-0.256 -1.533,-0.861 h -0.027 l -0.039,0.757 h -0.72 z m 0.861,-1.835 c 0,0.104 0.02,0.208 0.038,0.303 0.161,0.577 0.644,0.974 1.249,0.974 0.87,0 1.391,-0.709 1.391,-1.759 0,-0.918 -0.474,-1.703 -1.363,-1.703 -0.566,0 -1.097,0.388 -1.268,1.021 -0.019,0.095 -0.047,0.208 -0.047,0.341 z"
   id="path468" />
			<path
   fill="#ffffff"
   d="m 183.665,36.57 c 0,1.693 -1.173,2.432 -2.28,2.432 -1.239,0 -2.195,-0.908 -2.195,-2.356 0,-1.532 1.004,-2.431 2.271,-2.431 1.314,0 2.204,0.955 2.204,2.355 z m -3.633,0.047 c 0,1.003 0.577,1.76 1.391,1.76 0.794,0 1.391,-0.747 1.391,-1.778 0,-0.775 -0.388,-1.76 -1.372,-1.76 -0.984,0 -1.41,0.908 -1.41,1.778 z"
   id="path470" />
			<path
   fill="#ffffff"
   d="m 184.715,35.747 c 0,-0.539 -0.01,-1.003 -0.037,-1.429 h 0.729 l 0.027,0.899 h 0.038 c 0.208,-0.615 0.71,-1.003 1.269,-1.003 0.094,0 0.16,0.009 0.236,0.028 v 0.785 c -0.086,-0.02 -0.171,-0.028 -0.284,-0.028 -0.587,0 -1.003,0.444 -1.116,1.068 -0.02,0.114 -0.038,0.246 -0.038,0.389 v 2.44 h -0.823 v -3.149 z"
   id="path472" />
			<path
   fill="#ffffff"
   d="m 190.297,38.897 -0.066,-0.577 h -0.028 c -0.255,0.359 -0.747,0.682 -1.399,0.682 -0.928,0 -1.4,-0.653 -1.4,-1.315 0,-1.106 0.983,-1.712 2.752,-1.703 v -0.095 c 0,-0.378 -0.104,-1.06 -1.04,-1.06 -0.426,0 -0.87,0.133 -1.192,0.341 l -0.189,-0.549 c 0.379,-0.246 0.928,-0.406 1.505,-0.406 1.399,0 1.741,0.955 1.741,1.873 V 37.8 c 0,0.397 0.019,0.785 0.075,1.098 h -0.759 z m -0.123,-2.336 c -0.908,-0.019 -1.939,0.142 -1.939,1.031 0,0.539 0.359,0.795 0.785,0.795 0.596,0 0.975,-0.379 1.107,-0.767 0.027,-0.085 0.047,-0.18 0.047,-0.265 z"
   id="path474" />
			<path
   fill="#ffffff"
   d="m 193.287,33.004 v 1.314 h 1.191 v 0.634 h -1.191 v 2.47 c 0,0.567 0.16,0.889 0.624,0.889 0.218,0 0.378,-0.028 0.482,-0.057 l 0.038,0.625 c -0.161,0.065 -0.416,0.113 -0.738,0.113 -0.388,0 -0.7,-0.123 -0.898,-0.351 -0.236,-0.245 -0.322,-0.652 -0.322,-1.191 v -2.498 h -0.709 v -0.634 h 0.709 v -1.097 z"
   id="path476" />
			<path
   fill="#ffffff"
   d="m 199.502,36.57 c 0,1.693 -1.173,2.432 -2.279,2.432 -1.24,0 -2.195,-0.908 -2.195,-2.356 0,-1.532 1.003,-2.431 2.271,-2.431 1.314,0 2.203,0.955 2.203,2.355 z m -3.633,0.047 c 0,1.003 0.577,1.76 1.391,1.76 0.795,0 1.391,-0.747 1.391,-1.778 0,-0.775 -0.388,-1.76 -1.371,-1.76 -0.985,0 -1.411,0.908 -1.411,1.778 z m 2.64,-4.275 -1.154,1.353 h -0.596 l 0.833,-1.353 z"
   id="path478" />
			<path
   fill="#ffffff"
   d="m 200.553,35.747 c 0,-0.539 -0.01,-1.003 -0.038,-1.429 h 0.729 l 0.028,0.899 h 0.037 c 0.209,-0.615 0.71,-1.003 1.269,-1.003 0.095,0 0.161,0.009 0.236,0.028 v 0.785 c -0.085,-0.02 -0.171,-0.028 -0.284,-0.028 -0.586,0 -1.002,0.444 -1.116,1.068 -0.019,0.114 -0.038,0.246 -0.038,0.389 v 2.44 h -0.822 v -3.149 z"
   id="path480" />
			<path
   fill="#ffffff"
   d="m 204.611,33.032 c 0.01,0.283 -0.199,0.511 -0.529,0.511 -0.294,0 -0.502,-0.228 -0.502,-0.511 0,-0.294 0.218,-0.521 0.521,-0.521 0.311,10e-4 0.51,0.227 0.51,0.521 z m -0.927,5.865 v -4.579 h 0.833 v 4.579 z"
   id="path482" />
			<path
   fill="#ffffff"
   d="m 210.041,36.57 c 0,1.693 -1.173,2.432 -2.279,2.432 -1.24,0 -2.195,-0.908 -2.195,-2.356 0,-1.532 1.003,-2.431 2.271,-2.431 1.314,0 2.203,0.955 2.203,2.355 z m -3.633,0.047 c 0,1.003 0.577,1.76 1.391,1.76 0.795,0 1.391,-0.747 1.391,-1.778 0,-0.775 -0.388,-1.76 -1.371,-1.76 -0.985,0 -1.411,0.908 -1.411,1.778 z"
   id="path484" />
			<path
   fill="#ffffff"
   d="m 217.052,32.181 v 5.534 c 0,0.407 0.01,0.87 0.038,1.183 h -0.748 l -0.037,-0.795 h -0.02 c -0.255,0.511 -0.813,0.899 -1.561,0.899 -1.107,0 -1.959,-0.937 -1.959,-2.328 -0.009,-1.522 0.938,-2.459 2.054,-2.459 0.7,0 1.173,0.331 1.381,0.7 h 0.019 v -2.734 h 0.833 z m -0.833,4.002 c 0,-0.104 -0.009,-0.246 -0.037,-0.351 -0.123,-0.529 -0.577,-0.965 -1.201,-0.965 -0.861,0 -1.372,0.757 -1.372,1.77 0,0.927 0.454,1.693 1.353,1.693 0.559,0 1.069,-0.369 1.221,-0.993 0.028,-0.114 0.037,-0.228 0.037,-0.36 v -0.794 z"
   id="path486" />
			<path
   fill="#ffffff"
   d="m 218.896,36.76 c 0.02,1.125 0.738,1.589 1.57,1.589 0.597,0 0.956,-0.104 1.268,-0.236 l 0.143,0.596 c -0.293,0.133 -0.795,0.284 -1.523,0.284 -1.409,0 -2.252,-0.927 -2.252,-2.309 0,-1.381 0.814,-2.469 2.148,-2.469 1.494,0 1.892,1.314 1.892,2.156 0,0.171 -0.019,0.303 -0.028,0.389 z m 2.442,-0.597 c 0.01,-0.529 -0.218,-1.353 -1.154,-1.353 -0.842,0 -1.211,0.775 -1.277,1.353 z"
   id="path488" />
		</g>
	</g>
</g>

<g
   enable-background="new    "
   id="g557">
	<g
   id="g555">
		<g
   id="g553">
			<g
   id="g551">
				<g
   id="g549">
					<defs
   id="defs507">
						<rect
   id="SVGID_1_"
   x="-41.501"
   y="8.852"
   width="157.606"
   height="80.858" />
					</defs>
					<clipPath
   id="SVGID_2_">
						<use
   xlink:href="#SVGID_1_"
   overflow="visible"
   id="use509" />
					</clipPath>
					<g
   id="LVsbid_2_"
   clip-path="url(#SVGID_2_)">
						<g
   id="g546">
							<path
   d="M53.966,26.589c0.344-0.413,0.693-0.819,1.088-1.186c0.771-0.718,1.617-1.335,2.513-1.886         c0.731-0.452,1.463-0.904,2.207-1.335c0.661-0.386,1.291-0.822,1.946-1.212c0.486-0.288,0.914-0.343,1.33,0.122         c0.156,0.174,0.188,0.412,0.283,0.618c0,0.181,0,0.362,0,0.542c-0.221,0.59-0.721,0.904-1.215,1.216         c-0.656,0.419-1.322,0.824-1.979,1.238c-1.142,0.717-2.281,1.436-3.418,2.158c-0.726,0.461-1.448,0.928-2.169,1.396         c-0.047,0.03-0.096,0.041-0.141,0.062c-0.022-0.079-0.048-0.157-0.068-0.237C54.216,27.589,54.091,27.089,53.966,26.589z"
   id="path512" />
							<path
   d="M20.237,58.152c-0.414,0.258-0.826,0.521-1.242,0.771c-1.117,0.683-2.239,1.354-3.356,2.038         c-0.85,0.521-1.699,1.042-2.544,1.57c-0.268,0.164-0.533,0.326-0.856,0.351c-0.305,0.025-0.502-0.149-0.672-0.373         c-0.127-0.167-0.173-0.373-0.272-0.552c0-0.229,0-0.453,0-0.68c0.101-0.18,0.163-0.375,0.289-0.545         c0.323-0.44,0.806-0.645,1.252-0.899c0.825-0.479,1.652-0.951,2.48-1.423c0.606-0.344,1.22-0.68,1.828-1.021         c0.862-0.484,1.722-0.976,2.583-1.465C19.897,56.67,20.067,57.412,20.237,58.152z"
   id="path514" />
							<path
   d="M43.412,11.592c0.264,0.095,0.521,0.194,0.674,0.464c0.074,0.131,0.121,0.275,0.131,0.408         c0.062,0.736,0.103,1.474,0.01,2.211c-0.008,0.059-0.002,0.119-0.002,0.18c0,1.909,0,3.817-0.001,5.727         c0,0.081-0.011,0.163-0.015,0.245c-0.287-0.049-0.539-0.189-0.791-0.318c-0.457-0.229-0.926-0.354-1.433-0.179         c-0.041-0.164-0.017-0.329-0.019-0.493c-0.002-0.886,0.031-1.775-0.008-2.661c-0.062-1.401-0.017-2.804-0.041-4.206         c-0.004-0.255,0.025-0.505,0.104-0.739c0.102-0.303,0.311-0.53,0.648-0.593c0.031-0.006,0.059-0.009,0.064-0.045         C42.96,11.592,43.186,11.592,43.412,11.592z"
   id="path516" />
							<path
   d="M40.205,92.404c0-3.217,0-6.434-0.002-9.646c0-0.089,0.026-0.181-0.022-0.265c0.612,0.043,1.219,0.127,1.827,0.205         c0.002,1.751,0.041,3.503-0.008,5.252c-0.043,1.483-0.006,2.97-0.033,4.454C41.378,92.404,40.791,92.404,40.205,92.404z"
   id="path518" />
							<path
   d="M42.005,82.698c-0.606-0.078-1.215-0.162-1.826-0.205c-0.045-0.04-0.086-0.086-0.133-0.118         c-1.754-1.158-3.462-2.389-5.291-3.434c-1.253-0.717-2.551-1.34-3.933-1.772c-0.057-0.021-0.116-0.026-0.175-0.04         c-0.024-0.152-0.137-0.262-0.22-0.382c-0.277-0.405-0.515-0.835-0.833-1.21c0.011-0.059,0.03-0.116,0.032-0.176         c0.036-1,0.065-1.998,0.102-2.994c0.043-1.192,0.092-2.389,0.138-3.579c0.043-1.111,0.079-2.224,0.137-3.331         c0.023-0.414,0.025-0.826,0.047-1.239c0.089,0.013,0.18,0.015,0.268,0.032c0.622,0.119,1.242,0.325,1.875,0.052         c0.003,1.423,0.013,2.845,0.008,4.269c-0.006,1.507-0.043,3.012-0.033,4.517c0.007,1.054,0.439,1.888,1.383,2.419         c1.822,1.023,3.585,2.148,5.401,3.189c0.356,0.203,0.689,0.47,1.1,0.562c0.498,0.116,1.002,0.071,1.498-0.02         c1.093-0.191,2.14-0.545,3.158-0.973c1.791-0.75,3.506-1.633,4.996-2.896c0.637-0.545,1.03-1.19,0.979-2.072         c-0.045-0.795-0.035-1.595-0.057-2.394c-0.01-0.354-0.021-0.709,0.033-1.055c0.141-0.889,0.25-1.771,0.205-2.668         c-0.039-0.832-0.21-1.641-0.57-2.396c-0.674-1.411-1.82-2.312-3.195-2.958c-0.712-0.337-1.469-0.58-2.137-1.014         c-0.955-0.614-1.832-1.342-2.772-1.979c0.396-0.572,0.793-1.146,1.188-1.72c0.85,0.479,1.701,0.952,2.553,1.433         c1.797,1.018,3.593,2.034,5.392,3.051c0.495,0.278,0.996,0.555,1.495,0.832c0.012,0.041,0.012,0.079,0.044,0.119         c0.316,0.365,0.474,0.805,0.548,1.271c0.049,0.301,0.077,0.603,0.113,0.904c-0.107,0.521-0.156,1.051-0.221,1.578         c-0.135,1.104-0.223,2.209-0.256,3.316c-0.029,1.068-0.107,2.145-0.028,3.219c0.019,0.239,0.002,0.48,0.011,0.721         c0.028,0.812,0.061,1.621,0.094,2.433c0.002,0.041,0.021,0.084,0.032,0.128c-0.358,0.335-0.638,0.73-0.925,1.127         c-0.838,0.293-1.646,0.652-2.445,1.04c-2.066,0.997-4.023,2.188-5.992,3.358C43.201,82.004,42.604,82.352,42.005,82.698z"
   id="path520" />
							<path
   d="M32.195,64.302c-0.633,0.273-1.253,0.067-1.875-0.052c-0.088-0.02-0.179-0.021-0.268-0.032         c-1.207-0.995-2.513-1.854-3.85-2.661c-1.958-1.187-3.985-2.254-5.966-3.402c-0.17-0.739-0.34-1.481-0.511-2.228         c0.051-3.239,0.104-6.48,0.154-9.72c0.041-0.069,0.03-0.144,0.04-0.219c0.067-0.631,0.136-1.262,0.205-1.893         c1.108-0.584,2.22-1.168,3.327-1.754c2.277-1.206,4.552-2.414,6.829-3.621c0.052-0.028,0.108-0.05,0.163-0.075         c0.167,0.441,0.433,0.832,0.64,1.253c0.134,0.272,0.309,0.524,0.407,0.814c-0.891,0.49-1.774,0.991-2.668,1.468         c-1.917,1.023-3.77,2.164-5.726,3.111c-0.113,0.056-0.222,0.127-0.322,0.206c-0.265,0.204-0.412,0.472-0.419,0.812         c-0.008,0.376-0.024,0.753-0.029,1.129c-0.043,2.747-0.058,5.494-0.07,8.242c-0.002,0.56,0.217,0.938,0.668,1.213         c0.72,0.438,1.397,0.938,2.094,1.412c1.127,0.766,2.25,1.531,3.468,2.152c1.457,0.738,2.935,0.837,4.468,0.248         c1.204-0.463,2.333-1.074,3.469-1.673c0.949-0.503,1.857-1.087,2.843-1.519c0.261-0.117,0.493-0.287,0.705-0.484         c0.584-0.543,0.799-1.243,0.815-2.014c0.014-0.548-0.021-1.098-0.029-1.646c-0.029-1.725,0.025-3.447,0.053-5.17         c0.01-0.654,0.029-1.308,0.044-1.962c0.76,0.383,1.56,0.595,2.417,0.542c0.092,1.536,0.002,3.068-0.057,4.6         c-0.075,1.918-0.115,3.831,0.166,5.739c-0.396,0.569-0.791,1.146-1.188,1.72c-1.877,1.021-3.756,2.047-5.633,3.073         C35.103,62.706,33.65,63.505,32.195,64.302z"
   id="path522" />
							<path
   d="M41.985,20.329c0.507-0.175,0.976-0.05,1.433,0.179c0.252,0.129,0.504,0.27,0.791,0.318         c3.15,2.092,6.342,4.12,9.758,5.763c0.125,0.5,0.25,1,0.375,1.497c0.021,0.08,0.046,0.158,0.068,0.237         c-0.123,1.166-0.197,2.335-0.244,3.507c-0.078,1.908-0.047,3.817,0.004,5.727c0.014,0.541,0.037,1.08,0.055,1.622         c-0.25,0.588-0.502,1.175-0.751,1.763c-1.334,0.706-2.668,1.41-4.001,2.117c-1.87,0.992-3.739,1.987-5.608,2.979         c-0.067,0.036-0.136,0.061-0.206,0.091c-0.219-0.426-0.441-0.85-0.658-1.278c-0.143-0.279-0.315-0.543-0.408-0.847         c1.201-0.577,2.365-1.22,3.523-1.875c1.166-0.659,2.334-1.312,3.403-2.125c1.003-0.764,1.772-1.691,2.095-2.937         c0.327-1.26,0.319-2.547,0.314-3.834c-0.004-1.287-0.098-2.571-0.086-3.858c0.007-0.62-0.109-1.167-0.709-1.525         c-2.549-1.528-5.094-3.057-7.646-4.577c-0.515-0.306-0.98-0.318-1.482-0.036c-0.696,0.39-1.43,0.703-2.146,1.052         c-1.305,0.637-2.621,1.249-3.828,2.065c-0.603,0.408-1.149,0.875-1.576,1.471c-0.672,0.938-0.899,2.021-1.022,3.135         c-0.144,1.289-0.157,2.583-0.174,3.878c-0.018,1.241-0.015,2.483-0.02,3.726c-0.197-0.042-0.392-0.082-0.588-0.123         c-0.581-0.123-1.15-0.302-1.737-0.39c-0.005-1.196-0.01-2.392-0.011-3.588c-0.004-2.442-0.004-4.886-0.008-7.329         c0.136-0.118,0.274-0.232,0.409-0.353c0.5-0.441,1.032-0.844,1.511-1.31c3.066-1.499,6.095-3.07,8.933-4.978         C41.826,20.44,41.905,20.384,41.985,20.329z"
   id="path524" />
							<path
   d="M30.911,38.051c0.587,0.088,1.156,0.267,1.737,0.39c0.196,0.041,0.391,0.081,0.588,0.123         c0.061,0.042,0.122,0.088,0.185,0.125c2.792,1.629,5.584,3.26,8.379,4.885c0.26,0.15,0.5,0.335,0.789,0.429         c0.093,0.304,0.266,0.567,0.408,0.847c0.217,0.428,0.438,0.853,0.658,1.278c-0.1,0.235-0.257,0.437-0.387,0.652         c-0.857,0.053-1.657-0.159-2.417-0.542c-0.041-0.071-0.114-0.097-0.177-0.135c-3-1.772-6.001-3.543-9.001-5.314         c-0.058-0.034-0.125-0.052-0.185-0.078c-0.099-0.29-0.273-0.542-0.407-0.814c-0.207-0.421-0.472-0.812-0.64-1.253         C30.576,38.43,30.739,38.237,30.911,38.051z"
   id="path526" />
							<path
   d="M53.473,40.941c0.25-0.588,0.501-1.174,0.751-1.763c0.507,0.206,0.986,0.469,1.458,0.742         c1.28,0.741,2.44,1.658,3.616,2.548c0.818,0.618,1.652,1.21,2.484,1.806c0.277,0.199,0.534,0.456,0.643,0.806         c0.138,0.439-0.034,0.803-0.312,1.127c-0.146,0.173-0.312,0.324-0.546,0.396c-0.477,0.145-0.814-0.129-1.154-0.376         c-0.58-0.421-1.147-0.864-1.722-1.298c-0.713-0.537-1.429-1.071-2.142-1.611c-0.824-0.625-1.646-1.252-2.465-1.882         C53.876,41.277,53.675,41.107,53.473,40.941z"
   id="path528" />
							<path
   d="M52.232,77.25c0.287-0.396,0.564-0.792,0.925-1.127c1.166,0.294,2.203,0.861,3.179,1.545         c0.686,0.479,1.336,1.006,1.992,1.525c0.799,0.638,1.611,1.264,2.5,1.773c0.422,0.246,0.664,0.582,0.604,1.079         c-0.048,0.414-0.288,0.715-0.649,0.899c-0.365,0.189-0.746,0.095-1.059-0.104c-1.457-0.926-2.906-1.861-4.342-2.822         c-0.678-0.453-1.311-0.973-1.922-1.519C53.022,78.109,52.643,77.668,52.232,77.25z"
   id="path530" />
							<path
   d="M53.525,64.729c-0.037-0.303-0.064-0.604-0.113-0.902c-0.074-0.471-0.231-0.905-0.548-1.271         c-0.034-0.039-0.032-0.08-0.044-0.121c0.979-0.354,1.893-0.83,2.77-1.384c1.269-0.801,2.521-1.629,3.795-2.422         c0.414-0.257,0.878-0.452,1.361-0.146c0.405,0.259,0.67,0.621,0.689,1.125c0.018,0.426-0.286,0.637-0.592,0.812         c-1.206,0.692-2.396,1.412-3.592,2.121c-1.113,0.66-2.239,1.3-3.36,1.953C53.765,64.562,53.647,64.648,53.525,64.729z"
   id="path532" />
							<path
   d="M32.813,25.472c-0.479,0.465-1.012,0.868-1.511,1.31c-0.135,0.12-0.273,0.234-0.409,0.353         c-0.606-0.421-1.213-0.838-1.815-1.263c-0.532-0.375-1.057-0.758-1.588-1.134c-1.026-0.727-2.052-1.45-3.079-2.175         c-0.352-0.249-0.733-0.464-1.052-0.749c-0.523-0.469-0.633-0.925-0.146-1.604c0.393-0.546,0.783-0.551,1.298-0.291         c0.613,0.311,1.168,0.719,1.72,1.124c0.862,0.634,1.709,1.289,2.569,1.924c0.64,0.472,1.288,0.935,1.961,1.36         c0.634,0.401,1.278,0.783,1.968,1.081C32.765,25.424,32.797,25.434,32.813,25.472z"
   id="path534" />
							<path
   d="M20.124,44.095c-0.068,0.631-0.138,1.262-0.205,1.893c-0.009,0.075,0.001,0.15-0.04,0.219         c-0.44-0.285-0.882-0.568-1.32-0.857c-1.371-0.901-2.737-1.808-4.111-2.705c-0.854-0.559-1.732-1.079-2.554-1.688         c-0.32-0.235-0.45-0.559-0.366-0.927c0.097-0.424,0.294-0.811,0.685-1.055c0.207-0.13,0.43-0.147,0.649-0.038         c0.526,0.262,0.955,0.669,1.45,0.979c1.031,0.645,2.068,1.279,3.084,1.948c0.774,0.509,1.525,1.052,2.193,1.704         C19.77,43.741,19.907,43.959,20.124,44.095z"
   id="path536" />
							<path
   d="M29.597,75.537c0.318,0.375,0.556,0.805,0.833,1.21c0.083,0.12,0.196,0.229,0.22,0.382         c-1.163,0.816-2.332,1.635-3.489,2.461c-1.081,0.776-2.166,1.544-3.252,2.312c-0.433,0.305-0.858,0.607-1.377,0.728         c-0.369,0.083-0.723,0.002-0.993-0.288c-0.291-0.309-0.466-0.67-0.303-1.1c0.127-0.338,0.415-0.562,0.7-0.754         c0.843-0.569,1.646-1.188,2.463-1.795c1.02-0.76,2.043-1.514,3.148-2.145c0.614-0.349,1.235-0.682,1.9-0.921         C29.501,75.605,29.547,75.564,29.597,75.537z"
   id="path538" />
							<path
   d="M44.343,68.282c-0.285,0-0.571-0.003-0.856,0c-0.086,0-0.146,0-0.177-0.113c-0.291-1.01-0.706-1.356-1.76-1.456         c-0.48-0.05-0.961-0.01-1.42,0.169c-0.493,0.194-0.781,0.563-0.789,1.021c-0.008,0.479,0.188,0.781,0.635,0.957         c0.54,0.216,1.109,0.322,1.668,0.467c0.822,0.208,1.664,0.337,2.452,0.669c1.055,0.44,1.571,1.231,1.626,2.373         c0.072,1.516-0.879,2.688-2.174,3.106c-1.601,0.52-3.207,0.5-4.729-0.283c-1.054-0.539-1.601-1.439-1.652-2.635         c-0.006-0.172,0.045-0.22,0.214-0.218c0.549,0.011,1.099,0.005,1.648,0.003c0.111,0,0.203-0.003,0.227,0.147         c0.16,1.048,0.779,1.421,1.754,1.521c0.5,0.053,1.009,0.045,1.502-0.087c0.525-0.138,0.967-0.379,1.098-0.971         c0.107-0.491-0.061-0.886-0.503-1.116c-0.493-0.257-1.032-0.363-1.567-0.482c-0.877-0.195-1.766-0.358-2.604-0.701         c-0.945-0.383-1.47-1.072-1.582-2.09c-0.149-1.363,0.358-2.41,1.524-3.125c0.469-0.287,0.998-0.418,1.537-0.484         c0.84-0.109,1.682-0.1,2.498,0.171c1.146,0.376,2.026,1.043,2.361,2.271c0.062,0.231,0.096,0.472,0.123,0.709         c0.018,0.133-0.027,0.188-0.171,0.186C44.932,68.273,44.638,68.282,44.343,68.282z"
   id="path540" />
							<path
   d="M34.711,51.012c0.148,0.074,0.306,0.139,0.449,0.229c0.726,0.461,1.04,1.142,1.074,1.987         c0.028,0.729-0.116,1.396-0.534,1.998c-0.569,0.815-1.384,1.166-2.339,1.269c-0.812,0.084-1.625,0.038-2.437,0.045         c-0.979,0.011-1.957-0.002-2.936,0.009c-0.172,0-0.21-0.049-0.209-0.214c0.004-3.306,0.004-6.609,0-9.915         c-0.001-0.187,0.06-0.219,0.229-0.219c1.558,0.006,3.116,0.002,4.674,0.006c0.608,0,1.208,0.08,1.767,0.324         c0.804,0.349,1.288,0.967,1.43,1.84c0.094,0.575,0.065,1.133-0.192,1.664c-0.173,0.356-0.437,0.628-0.785,0.818         C34.831,50.893,34.748,50.919,34.711,51.012z M31.346,54.739c0-0.005,0-0.007,0-0.009c0.451,0,0.903,0.017,1.354-0.004         c1.266-0.059,1.625-1.24,1.207-2.104c-0.229-0.471-0.704-0.572-1.173-0.604c-0.9-0.063-1.805-0.016-2.707-0.022         c-0.14,0-0.178,0.046-0.177,0.183c0.005,0.789,0.006,1.58,0,2.371c-0.002,0.145,0.034,0.195,0.186,0.191         C30.472,54.73,30.909,54.739,31.346,54.739z M31.317,50.276c0-0.005,0-0.008,0-0.012c0.443,0,0.888,0.018,1.33-0.005         c0.415-0.021,0.803-0.151,1.058-0.51c0.169-0.24,0.133-0.528,0.13-0.801c-0.002-0.284-0.118-0.522-0.363-0.675         c-0.395-0.247-0.852-0.237-1.288-0.258c-0.711-0.032-1.428-0.005-2.141-0.011c-0.142-0.001-0.197,0.028-0.195,0.185         c0.009,0.63,0.009,1.263,0,1.893c-0.001,0.164,0.056,0.2,0.207,0.197C30.476,50.269,30.897,50.276,31.317,50.276z"
   id="path542" />
							<path
   d="M39.826,33.625c0-1.64,0.004-3.282-0.004-4.923c-0.001-0.202,0.055-0.253,0.251-0.249         c0.558,0.013,1.114,0.013,1.671,0c0.189-0.003,0.24,0.049,0.24,0.239c-0.007,2.648-0.005,5.297-0.005,7.947         c0,0.341-0.042,0.294,0.304,0.294c1.543,0.002,3.086,0.004,4.629-0.002c0.182-0.001,0.248,0.037,0.24,0.232         c-0.015,0.473-0.009,0.949-0.001,1.422c0.003,0.148-0.024,0.21-0.194,0.21c-2.311-0.007-4.621-0.007-6.931,0         c-0.188,0.001-0.202-0.076-0.202-0.226C39.828,36.92,39.826,35.272,39.826,33.625z"
   id="path544" />
						</g>
					</g>
				</g>
			</g>
		</g>
	</g>
</g>
<g
   enable-background="new    "
   id="g610">
	<g
   id="g608">
		<g
   id="g606">
			<g
   id="g604">
				<g
   id="g602">
					<defs
   id="defs560">
						<rect
   id="SVGID_3_"
   x="-42.001"
   y="8.509"
   width="157.606"
   height="80.857" />
					</defs>
					<clipPath
   id="SVGID_4_">
						<use
   xlink:href="#SVGID_3_"
   overflow="visible"
   id="use562" />
					</clipPath>
					<g
   id="LVsbid_1_"
   clip-path="url(#SVGID_4_)">
						<g
   id="g599">
							<path
   fill="#F6F6F6"
   d="M53.466,26.246c0.344-0.413,0.693-0.819,1.088-1.186c0.771-0.718,1.617-1.335,2.513-1.886         c0.731-0.452,1.463-0.904,2.207-1.335c0.661-0.386,1.291-0.822,1.946-1.212c0.486-0.288,0.914-0.343,1.33,0.122         c0.156,0.174,0.188,0.412,0.283,0.618c0,0.181,0,0.362,0,0.542c-0.221,0.59-0.721,0.904-1.215,1.216         c-0.656,0.419-1.322,0.824-1.979,1.238c-1.142,0.717-2.281,1.436-3.418,2.158c-0.726,0.461-1.448,0.928-2.169,1.396         c-0.047,0.03-0.096,0.041-0.141,0.062c-0.022-0.079-0.048-0.157-0.068-0.237C53.716,27.246,53.591,26.746,53.466,26.246z"
   id="path565" />
							<path
   fill="#F6F6F6"
   d="M19.737,57.811c-0.414,0.258-0.826,0.521-1.242,0.771c-1.117,0.682-2.239,1.355-3.356,2.039         c-0.85,0.52-1.699,1.041-2.544,1.57c-0.268,0.164-0.533,0.326-0.856,0.35c-0.305,0.025-0.502-0.15-0.672-0.373         c-0.127-0.166-0.173-0.373-0.272-0.551c0-0.229,0-0.453,0-0.68c0.101-0.182,0.163-0.375,0.289-0.545         c0.323-0.441,0.806-0.645,1.252-0.9c0.825-0.479,1.652-0.951,2.48-1.422c0.606-0.344,1.22-0.68,1.828-1.022         c0.862-0.483,1.722-0.975,2.583-1.465C19.397,56.326,19.567,57.068,19.737,57.811z"
   id="path567" />
							<path
   fill="#F6F6F6"
   d="M42.912,11.249c0.264,0.095,0.521,0.194,0.674,0.464c0.074,0.131,0.121,0.275,0.131,0.408         c0.062,0.736,0.103,1.474,0.01,2.211c-0.008,0.059-0.002,0.119-0.002,0.18c0,1.909,0,3.817-0.001,5.727         c0,0.081-0.011,0.163-0.015,0.245c-0.287-0.049-0.539-0.189-0.791-0.318c-0.457-0.229-0.926-0.354-1.433-0.179         c-0.041-0.164-0.017-0.329-0.019-0.493c-0.002-0.886,0.031-1.775-0.008-2.661c-0.062-1.401-0.017-2.804-0.041-4.206         c-0.004-0.255,0.025-0.505,0.104-0.739c0.102-0.303,0.311-0.53,0.648-0.593c0.031-0.006,0.059-0.009,0.064-0.045         C42.46,11.249,42.686,11.249,42.912,11.249z"
   id="path569" />
							<path
   fill="#F6F6F6"
   d="M39.705,92.062c0-3.217,0-6.436-0.002-9.646c0-0.09,0.026-0.182-0.022-0.266         c0.612,0.043,1.219,0.127,1.827,0.205c0.002,1.752,0.041,3.504-0.008,5.252c-0.043,1.482-0.006,2.971-0.033,4.455         C40.878,92.062,40.291,92.062,39.705,92.062z"
   id="path571" />
							<path
   fill="#6CC8EA"
   d="M41.505,82.354c-0.606-0.078-1.215-0.162-1.826-0.205c-0.045-0.039-0.086-0.086-0.133-0.115         c-1.754-1.158-3.462-2.391-5.291-3.436c-1.253-0.717-2.551-1.34-3.933-1.771c-0.057-0.021-0.116-0.027-0.175-0.039         c-0.024-0.154-0.137-0.264-0.22-0.385c-0.277-0.402-0.515-0.834-0.833-1.209c0.011-0.059,0.03-0.115,0.032-0.176         c0.036-1,0.065-1.998,0.102-2.994c0.043-1.191,0.092-2.389,0.138-3.58c0.043-1.109,0.079-2.223,0.137-3.33         c0.023-0.412,0.025-0.824,0.047-1.238c0.089,0.012,0.18,0.016,0.268,0.033c0.622,0.117,1.242,0.322,1.875,0.051         c0.003,1.422,0.013,2.844,0.008,4.27c-0.006,1.506-0.043,3.012-0.033,4.516c0.007,1.053,0.439,1.887,1.383,2.42         c1.822,1.023,3.585,2.148,5.401,3.189c0.356,0.203,0.689,0.469,1.1,0.562c0.498,0.114,1.002,0.069,1.498-0.021         c1.093-0.19,2.14-0.545,3.158-0.974c1.791-0.75,3.506-1.631,4.996-2.896c0.637-0.545,1.03-1.19,0.979-2.071         c-0.045-0.795-0.035-1.595-0.057-2.394c-0.01-0.354-0.021-0.709,0.033-1.056c0.141-0.887,0.25-1.771,0.205-2.668         c-0.039-0.832-0.21-1.639-0.57-2.396c-0.674-1.409-1.82-2.312-3.195-2.957c-0.712-0.338-1.469-0.58-2.137-1.014         c-0.955-0.615-1.832-1.343-2.772-1.978c0.396-0.573,0.793-1.147,1.188-1.72c0.85,0.479,1.701,0.953,2.553,1.433         c1.797,1.017,3.593,2.032,5.392,3.049c0.495,0.279,0.996,0.556,1.495,0.832c0.012,0.041,0.012,0.08,0.044,0.121         c0.316,0.365,0.474,0.803,0.548,1.271c0.049,0.301,0.077,0.604,0.113,0.904c-0.107,0.521-0.156,1.051-0.221,1.578         c-0.135,1.104-0.223,2.209-0.256,3.318c-0.029,1.068-0.107,2.143-0.028,3.219c0.019,0.238,0.002,0.48,0.011,0.719         c0.028,0.811,0.061,1.621,0.094,2.432c0.002,0.041,0.021,0.084,0.032,0.129c-0.358,0.334-0.638,0.73-0.925,1.127         c-0.838,0.295-1.646,0.652-2.445,1.039c-2.066,0.998-4.023,2.188-5.992,3.359C42.701,81.661,42.104,82.007,41.505,82.354z"
   id="path573" />
							<path
   fill="#8BBF4A"
   d="M31.695,63.958c-0.633,0.272-1.253,0.067-1.875-0.051c-0.088-0.021-0.179-0.021-0.268-0.033         c-1.207-0.996-2.513-1.854-3.85-2.662c-1.958-1.187-3.985-2.252-5.966-3.401c-0.17-0.74-0.34-1.48-0.511-2.227         c0.051-3.24,0.104-6.48,0.154-9.72c0.041-0.069,0.03-0.144,0.04-0.219c0.067-0.631,0.136-1.262,0.205-1.893         c1.108-0.584,2.22-1.168,3.327-1.754c2.277-1.206,4.552-2.414,6.829-3.621c0.052-0.028,0.108-0.05,0.163-0.075         c0.167,0.441,0.433,0.832,0.64,1.253c0.134,0.272,0.309,0.524,0.407,0.814c-0.891,0.49-1.774,0.991-2.668,1.468         c-1.917,1.023-3.77,2.164-5.726,3.111c-0.113,0.056-0.222,0.127-0.322,0.206c-0.265,0.204-0.412,0.472-0.419,0.812         c-0.008,0.376-0.024,0.753-0.029,1.129c-0.043,2.747-0.058,5.493-0.07,8.241c-0.002,0.559,0.217,0.938,0.668,1.213         c0.72,0.436,1.397,0.939,2.094,1.412c1.127,0.766,2.25,1.532,3.468,2.152c1.457,0.738,2.935,0.837,4.468,0.248         c1.204-0.463,2.333-1.073,3.469-1.674c0.949-0.502,1.857-1.084,2.843-1.518c0.261-0.115,0.493-0.287,0.705-0.482         c0.584-0.543,0.799-1.244,0.815-2.016c0.014-0.547-0.021-1.098-0.029-1.646c-0.029-1.723,0.025-3.447,0.053-5.169         c0.01-0.654,0.029-1.308,0.044-1.962c0.76,0.383,1.56,0.595,2.417,0.542c0.092,1.536,0.002,3.068-0.057,4.601         c-0.075,1.918-0.115,3.83,0.166,5.736c-0.396,0.572-0.791,1.146-1.188,1.722c-1.877,1.022-3.756,2.047-5.633,3.073         C34.603,62.361,33.15,63.161,31.695,63.958z"
   id="path575" />
							<path
   fill="#F7A82E"
   d="M41.485,19.986c0.507-0.175,0.976-0.05,1.433,0.179c0.252,0.129,0.504,0.27,0.791,0.318         c3.15,2.092,6.342,4.12,9.758,5.763c0.125,0.5,0.25,1,0.375,1.497c0.021,0.08,0.046,0.158,0.068,0.237         c-0.123,1.166-0.197,2.335-0.244,3.507c-0.078,1.908-0.047,3.817,0.004,5.727c0.014,0.541,0.037,1.08,0.055,1.622         c-0.25,0.588-0.502,1.175-0.751,1.763c-1.334,0.706-2.668,1.41-4.001,2.117c-1.87,0.992-3.739,1.987-5.608,2.979         c-0.067,0.036-0.136,0.061-0.206,0.091c-0.219-0.426-0.441-0.85-0.658-1.278c-0.143-0.279-0.315-0.543-0.408-0.847         c1.201-0.577,2.365-1.22,3.523-1.875c1.166-0.659,2.334-1.312,3.403-2.125c1.003-0.764,1.772-1.691,2.095-2.937         c0.327-1.26,0.319-2.547,0.314-3.834c-0.004-1.287-0.098-2.571-0.086-3.858c0.007-0.62-0.109-1.167-0.709-1.525         c-2.549-1.528-5.094-3.057-7.646-4.577c-0.515-0.306-0.98-0.318-1.482-0.036c-0.696,0.39-1.43,0.703-2.146,1.052         c-1.305,0.637-2.621,1.249-3.828,2.065c-0.603,0.408-1.149,0.875-1.576,1.471c-0.672,0.938-0.899,2.021-1.022,3.135         c-0.144,1.289-0.157,2.583-0.174,3.878c-0.018,1.241-0.015,2.483-0.02,3.726c-0.197-0.042-0.392-0.082-0.588-0.123         c-0.581-0.123-1.15-0.302-1.737-0.39c-0.005-1.196-0.01-2.392-0.011-3.588c-0.004-2.442-0.004-4.886-0.008-7.329         c0.136-0.118,0.274-0.232,0.409-0.353c0.5-0.441,1.032-0.844,1.511-1.31c3.066-1.499,6.095-3.07,8.933-4.978         C41.326,20.097,41.405,20.041,41.485,19.986z"
   id="path577" />
							<path
   fill="#C3C54D"
   d="M30.411,37.708c0.587,0.088,1.156,0.267,1.737,0.39c0.196,0.041,0.391,0.081,0.588,0.123         c0.061,0.042,0.122,0.088,0.185,0.125c2.792,1.629,5.584,3.26,8.379,4.885c0.26,0.15,0.5,0.335,0.789,0.429         c0.093,0.304,0.266,0.567,0.408,0.847c0.217,0.428,0.438,0.853,0.658,1.278c-0.1,0.235-0.257,0.437-0.387,0.652         c-0.857,0.053-1.657-0.159-2.417-0.542c-0.041-0.071-0.114-0.097-0.177-0.135c-3-1.772-6.001-3.543-9.001-5.314         c-0.058-0.034-0.125-0.052-0.185-0.078c-0.099-0.29-0.273-0.542-0.407-0.814c-0.207-0.421-0.472-0.812-0.64-1.253         C30.076,38.086,30.239,37.894,30.411,37.708z"
   id="path579" />
							<path
   fill="#F6F6F6"
   d="M52.973,40.598c0.25-0.588,0.501-1.174,0.751-1.763c0.507,0.206,0.986,0.469,1.458,0.742         c1.28,0.741,2.44,1.658,3.616,2.548c0.818,0.618,1.652,1.21,2.484,1.806c0.277,0.199,0.534,0.456,0.643,0.806         c0.138,0.439-0.034,0.803-0.312,1.127c-0.146,0.173-0.312,0.324-0.546,0.396c-0.477,0.145-0.814-0.129-1.154-0.376         c-0.58-0.421-1.147-0.864-1.722-1.298c-0.713-0.537-1.429-1.071-2.142-1.611c-0.824-0.625-1.646-1.252-2.465-1.882         C53.376,40.934,53.175,40.764,52.973,40.598z"
   id="path581" />
							<path
   fill="#F6F6F6"
   d="M51.732,76.907c0.287-0.396,0.564-0.793,0.925-1.128c1.166,0.294,2.203,0.861,3.179,1.546         c0.686,0.479,1.336,1.006,1.992,1.524c0.799,0.637,1.611,1.265,2.5,1.774c0.422,0.246,0.664,0.582,0.604,1.078         c-0.048,0.414-0.288,0.715-0.649,0.899c-0.365,0.188-0.746,0.094-1.059-0.104c-1.457-0.926-2.906-1.861-4.342-2.824         c-0.678-0.451-1.311-0.971-1.922-1.518C52.522,77.768,52.143,77.325,51.732,76.907z"
   id="path583" />
							<path
   fill="#F6F6F6"
   d="M53.025,64.386c-0.037-0.303-0.064-0.604-0.113-0.903c-0.074-0.469-0.231-0.903-0.548-1.271         c-0.034-0.039-0.032-0.08-0.044-0.121c0.979-0.354,1.893-0.83,2.77-1.383c1.269-0.801,2.521-1.629,3.795-2.422         c0.414-0.259,0.878-0.452,1.361-0.146c0.405,0.26,0.67,0.62,0.689,1.125c0.018,0.426-0.286,0.637-0.592,0.812         c-1.206,0.692-2.396,1.412-3.592,2.121c-1.113,0.659-2.239,1.301-3.36,1.952C53.265,64.221,53.147,64.307,53.025,64.386z"
   id="path585" />
							<path
   fill="#F6F6F6"
   d="M32.313,25.129c-0.479,0.465-1.012,0.868-1.511,1.31c-0.135,0.12-0.273,0.234-0.409,0.353         c-0.606-0.421-1.213-0.838-1.815-1.263c-0.532-0.375-1.057-0.758-1.588-1.134c-1.026-0.727-2.052-1.45-3.079-2.175         c-0.352-0.249-0.733-0.464-1.052-0.749c-0.523-0.469-0.633-0.925-0.146-1.604c0.393-0.546,0.783-0.551,1.298-0.291         c0.613,0.311,1.168,0.719,1.72,1.124c0.862,0.634,1.709,1.289,2.569,1.924c0.64,0.472,1.288,0.935,1.961,1.36         c0.634,0.401,1.278,0.783,1.968,1.081C32.265,25.081,32.297,25.091,32.313,25.129z"
   id="path587" />
							<path
   fill="#F6F6F6"
   d="M19.624,43.751c-0.068,0.631-0.138,1.262-0.205,1.893c-0.009,0.075,0.001,0.15-0.04,0.219         c-0.44-0.285-0.882-0.568-1.32-0.857c-1.371-0.901-2.737-1.808-4.111-2.705c-0.854-0.559-1.732-1.079-2.554-1.688         c-0.32-0.235-0.45-0.559-0.366-0.927c0.097-0.424,0.294-0.811,0.685-1.055c0.207-0.13,0.43-0.147,0.649-0.038         c0.526,0.262,0.955,0.669,1.45,0.979c1.031,0.645,2.068,1.279,3.084,1.948c0.774,0.509,1.525,1.052,2.193,1.704         C19.27,43.398,19.407,43.616,19.624,43.751z"
   id="path589" />
							<path
   fill="#F6F6F6"
   d="M29.097,75.193c0.318,0.375,0.556,0.806,0.833,1.209c0.083,0.121,0.196,0.229,0.22,0.384         c-1.163,0.815-2.332,1.633-3.489,2.461c-1.081,0.774-2.166,1.543-3.252,2.312c-0.433,0.306-0.858,0.608-1.377,0.729         c-0.369,0.082-0.723,0.002-0.993-0.289c-0.291-0.31-0.466-0.67-0.303-1.101c0.127-0.338,0.415-0.562,0.7-0.754         c0.843-0.567,1.646-1.188,2.463-1.795c1.02-0.761,2.043-1.515,3.148-2.144c0.614-0.349,1.235-0.683,1.9-0.92         C29.001,75.264,29.047,75.223,29.097,75.193z"
   id="path591" />
							<path
   fill="#6CC8EA"
   d="M43.843,67.938c-0.285,0-0.571-0.002-0.856,0c-0.086,0-0.146,0-0.177-0.111         c-0.291-1.012-0.706-1.357-1.76-1.455c-0.48-0.053-0.961-0.012-1.42,0.168c-0.493,0.193-0.781,0.562-0.789,1.021         c-0.008,0.479,0.188,0.78,0.635,0.957c0.54,0.215,1.109,0.321,1.668,0.465c0.822,0.209,1.664,0.338,2.452,0.67         c1.055,0.44,1.571,1.231,1.626,2.373c0.072,1.517-0.879,2.688-2.174,3.106c-1.601,0.519-3.207,0.5-4.729-0.282         c-1.054-0.539-1.601-1.44-1.652-2.636c-0.006-0.172,0.045-0.219,0.214-0.217c0.549,0.01,1.099,0.004,1.648,0.002         c0.111,0,0.203-0.002,0.227,0.147c0.16,1.047,0.779,1.42,1.754,1.521c0.5,0.054,1.009,0.045,1.502-0.086         c0.525-0.14,0.967-0.379,1.098-0.972c0.107-0.491-0.061-0.887-0.503-1.116c-0.493-0.257-1.032-0.363-1.567-0.482         c-0.877-0.196-1.766-0.358-2.604-0.7c-0.945-0.384-1.47-1.074-1.582-2.09c-0.149-1.365,0.358-2.41,1.524-3.125         c0.469-0.287,0.998-0.419,1.537-0.486c0.84-0.108,1.682-0.098,2.498,0.172c1.146,0.375,2.026,1.044,2.361,2.271         c0.062,0.232,0.096,0.472,0.123,0.709c0.018,0.134-0.027,0.188-0.171,0.188C44.432,67.932,44.138,67.938,43.843,67.938z"
   id="path593" />
							<path
   fill="#8ABF4A"
   d="M34.211,50.668c0.148,0.074,0.306,0.139,0.449,0.23c0.726,0.461,1.04,1.141,1.074,1.986         c0.028,0.729-0.116,1.396-0.534,1.998c-0.569,0.816-1.384,1.166-2.339,1.27c-0.812,0.084-1.625,0.037-2.437,0.045         c-0.979,0.01-1.957-0.002-2.936,0.008c-0.172,0-0.21-0.049-0.209-0.213c0.004-3.305,0.004-6.609,0-9.916         c-0.001-0.187,0.06-0.219,0.229-0.219c1.558,0.006,3.116,0.002,4.674,0.006c0.608,0,1.208,0.08,1.767,0.324         c0.804,0.349,1.288,0.967,1.43,1.84c0.094,0.575,0.065,1.133-0.192,1.664c-0.173,0.356-0.437,0.628-0.785,0.818         C34.331,50.549,34.248,50.576,34.211,50.668z M30.846,54.396c0-0.004,0-0.006,0-0.008c0.451,0,0.903,0.016,1.354-0.006         c1.266-0.059,1.625-1.238,1.207-2.104c-0.229-0.469-0.704-0.571-1.173-0.604c-0.9-0.063-1.805-0.016-2.707-0.022         c-0.14,0-0.178,0.046-0.177,0.183c0.005,0.789,0.006,1.58,0,2.371c-0.002,0.146,0.034,0.194,0.186,0.19         C29.972,54.389,30.409,54.396,30.846,54.396z M30.817,49.933c0-0.005,0-0.008,0-0.012c0.443,0,0.888,0.018,1.33-0.005         c0.415-0.021,0.803-0.151,1.058-0.51c0.169-0.24,0.133-0.528,0.13-0.801c-0.002-0.284-0.118-0.522-0.363-0.675         c-0.395-0.247-0.852-0.237-1.288-0.258c-0.711-0.032-1.428-0.005-2.141-0.011c-0.142-0.001-0.197,0.028-0.195,0.185         c0.009,0.63,0.009,1.263,0,1.893c-0.001,0.164,0.056,0.2,0.207,0.197C29.976,49.926,30.397,49.933,30.817,49.933z"
   id="path595" />
							<path
   fill="#F7A82E"
   d="M39.326,33.282c0-1.64,0.004-3.282-0.004-4.923c-0.001-0.202,0.055-0.253,0.251-0.249         c0.558,0.013,1.114,0.013,1.671,0c0.189-0.003,0.24,0.049,0.24,0.239c-0.007,2.648-0.005,5.297-0.005,7.947         c0,0.341-0.042,0.294,0.304,0.294c1.543,0.002,3.086,0.004,4.629-0.002c0.182-0.001,0.248,0.037,0.24,0.232         c-0.015,0.473-0.009,0.949-0.001,1.422c0.003,0.148-0.024,0.21-0.194,0.21c-2.311-0.007-4.621-0.007-6.931,0         c-0.188,0.001-0.202-0.076-0.202-0.226C39.328,36.577,39.326,34.929,39.326,33.282z"
   id="path597" />
						</g>
					</g>
				</g>
			</g>
		</g>
	</g>
</g>

</svg>
