<?xml version="1.0" encoding="utf-8"?>
<!-- Generator: Adobe Illustrator 27.0.0, SVG Export Plug-In . SVG Version: 6.00 Build 0)  -->
<svg version="1.1" id="Camada_1" xmlns="http://www.w3.org/2000/svg" xmlns:xlink="http://www.w3.org/1999/xlink" x="0px" y="0px"
	 viewBox="0 0 340.16 76.54" style="enable-background:new 0 0 340.16 76.54;" xml:space="preserve">
<style type="text/css">
	.st0{fill:#F9F9F9;}
</style>
<g>
	<path class="st0" d="M105.47,52.14c0,0.72,0,1.41,0,2.08c-5.25,0-10.48,0-15.76,0c0-0.59-0.02-1.21,0.02-1.83
		c0.01-0.1,0.22-0.26,0.36-0.28c0.91-0.09,1.82-0.15,2.74-0.22c0.54-0.04,0.83-0.35,0.88-0.88c0.1-1.27,0.26-2.53,0.28-3.8
		c0.08-5.53,0.15-11.06,0.16-16.6c0.01-2.36-0.12-4.71-0.19-7.07c-0.01-0.2-0.05-0.4-0.08-0.6c-0.12-0.69-0.31-0.91-1-1.02
		c-0.9-0.13-1.82-0.23-2.73-0.31c-0.33-0.03-0.45-0.13-0.43-0.46c0.02-0.52,0.01-1.04,0.01-1.56c1.18,0,2.3,0,3.41,0
		c3.17-0.01,6.35-0.01,9.52-0.02c2.87,0,5.73-0.07,8.6,0.01c1.81,0.05,3.57,0.44,4.99,1.73c1.89,1.72,2.54,3.89,2.23,6.36
		c-0.47,3.72-2.72,6.1-5.96,7.67c-0.49,0.24-0.99,0.44-1.56,0.69c0.14,0.25,0.27,0.5,0.42,0.73c2.25,3.42,4.48,6.84,6.75,10.24
		c0.87,1.3,1.84,2.52,2.75,3.79c0.64,0.9,1.43,1.48,2.59,1.44c0.08,0,0.16,0.02,0.27,0.04c0,0.67,0,1.32,0,1.97
		c-3.16,0-6.29,0-9.28,0c-1.4-2.34-2.76-4.65-4.16-6.92c-1.81-2.93-3.65-5.84-5.52-8.73c-0.45-0.69-1.04-1.29-1.62-1.88
		c-0.25-0.26-0.17-0.47-0.06-0.67c0.08-0.15,0.28-0.33,0.45-0.34c0.91-0.09,1.83-0.07,2.74-0.2c2.03-0.3,3.32-1.59,4.2-3.35
		c0.83-1.66,1.03-3.43,0.7-5.25c-0.36-2.02-2.1-4.49-5.21-4.65c-1.38-0.07-2.78,0.04-4.17,0.05c-0.31,0-0.4,0.15-0.41,0.44
		c-0.05,1.95-0.14,3.9-0.16,5.85c-0.05,3.85-0.1,7.7-0.09,11.56c0.01,3.15,0.12,6.31,0.2,9.46c0.01,0.36,0.05,0.71,0.1,1.06
		c0.12,0.85,0.44,1.19,1.31,1.28C103.61,52.06,104.51,52.08,105.47,52.14z"/>
	<path class="st0" d="M133.86,27.54c0,0.18,0,0.36,0,0.54c0,4.4-0.03,8.8,0.01,13.19c0.03,2.87,0.15,5.73,0.24,8.6
		c0.01,0.2,0.04,0.4,0.07,0.61c0.15,1.25,0.4,1.48,1.66,1.58c0.81,0.06,1.62,0.12,2.47,0.19c0,0.61,0,1.25,0,1.97
		c-3.95,0-7.88,0-11.85,0c0-0.64,0-1.31,0-2.01c0.95-0.08,1.9-0.14,2.83-0.23c0.84-0.08,1.12-0.34,1.23-1.21
		c0.14-1.14,0.28-2.29,0.3-3.44c0.09-4.87,0.17-9.74,0.18-14.61c0.01-2.93-0.1-5.87-0.17-8.8c-0.01-0.27-0.05-0.54-0.1-0.81
		c-0.12-0.68-0.53-1.1-1.21-1.19c-1-0.14-2.01-0.24-3.06-0.36c0-0.66,0-1.33,0-1.91c1.2,0,2.38,0.01,3.56,0
		c2.17-0.03,4.34-0.06,6.51-0.12c0.31-0.01,0.49,0.06,0.68,0.3c4.85,5.99,9.68,11.99,14.57,17.94c1.83,2.22,3.83,4.31,5.75,6.46
		c0.12,0.14,0.23,0.29,0.35,0.44c0.04-0.02,0.09-0.04,0.13-0.06c0.01-0.14,0.04-0.27,0.04-0.41c-0.02-5.48-0.02-10.97-0.07-16.45
		c-0.01-1.57-0.14-3.15-0.27-4.72c-0.07-0.83-0.36-1.09-1.19-1.2c-1-0.13-2.02-0.19-3.05-0.29c0-0.65,0-1.32,0-1.95
		c3.96,0,7.89,0,11.85,0c0,0.61,0,1.28,0,1.97c-0.9,0.08-1.81,0.14-2.71,0.26c-0.98,0.13-1.15,0.24-1.25,1.22
		c-0.18,1.91-0.33,3.82-0.37,5.73c-0.08,4.24-0.11,8.49-0.1,12.73c0.02,3.88,0.12,7.77,0.2,11.65c0.01,0.42,0.05,0.85,0.09,1.27
		c0.04,0.38-0.13,0.56-0.5,0.51c-1.31-0.19-2.62-0.39-3.92-0.61c-0.18-0.03-0.36-0.23-0.5-0.39c-3.97-4.62-7.97-9.22-11.9-13.87
		c-3.39-4-6.7-8.07-10.05-12.11c-0.12-0.14-0.24-0.28-0.36-0.42C133.94,27.52,133.9,27.53,133.86,27.54z"/>
	<path class="st0" d="M222.2,67.36c-4.78,0-9.52,0-14.31,0c0-0.55,0-1.19,0-1.85c0.67-0.03,1.33-0.06,1.99-0.1
		c1.02-0.06,1.39-0.36,1.48-1.37c0.11-1.28,0.18-2.57,0.19-3.86c0.04-6.76,0.07-13.51,0.06-20.27c0-1.52-0.16-3.04-0.29-4.56
		c-0.05-0.62-0.33-0.86-0.96-0.92c-0.81-0.08-1.62-0.09-2.47-0.14c0-0.64,0-1.25,0-1.9c0.94-0.13,1.88-0.26,2.82-0.38
		c2.17-0.27,4.26-0.8,6.27-1.67c0.56-0.24,0.94,0.01,0.94,0.64c0,1.2,0,2.4,0,3.66c0.15-0.11,0.31-0.23,0.45-0.35
		c1.26-1.06,2.49-2.16,3.8-3.15c0.5-0.38,1.19-0.6,1.82-0.69c2.37-0.33,4.72-0.27,6.85,1.03c2.72,1.66,4.18,4.13,4.44,7.31
		c0.18,2.25-0.2,4.42-0.93,6.54c-0.67,1.92-1.76,3.54-3.39,4.78c-1.43,1.09-2.86,2.19-4.26,3.32c-1.58,1.28-3.4,1.63-5.36,1.42
		c-1.16-0.13-2.3-0.39-3.48-0.6c-0.01,0.09-0.02,0.23-0.02,0.38c0,2.89,0,5.77,0,8.66c0,1.35,0,1.84,1.71,1.95
		c0.88,0.06,1.75,0.15,2.65,0.23C222.2,66.14,222.2,66.76,222.2,67.36z M228.96,42.42c-0.09-0.58-0.19-1.73-0.44-2.85
		c-0.55-2.49-1.98-4.25-4.57-4.75c-2.26-0.43-4.16,0.46-5.76,2.01c-0.19,0.18-0.32,0.52-0.32,0.79c-0.02,3.34-0.01,6.69-0.01,10.03
		c0,1.97,0.08,2.1,1.78,3.13c0.12,0.07,0.23,0.14,0.35,0.2c2.5,1.34,6.53,1.05,8.05-2.86C228.66,46.46,228.91,44.75,228.96,42.42z"
		/>
	<path class="st0" d="M292.96,54.28c-0.69,0-1.31,0-1.94,0c-2.41,0.01-4.82,0.02-7.22,0.03c-0.76,0-0.78-0.03-0.73-0.77
		c0.06-1.1,0.11-2.19,0.17-3.42c-0.23,0.18-0.38,0.29-0.51,0.4c-1.3,1.12-2.6,2.23-3.88,3.37c-0.67,0.6-1.42,0.94-2.32,1.03
		c-5.83,0.59-9.51-3.34-10.38-7.92c-0.61-3.2-0.44-6.35,0.81-9.39c0.43-1.05,1.03-1.99,1.98-2.66c1.71-1.2,3.41-2.4,5.15-3.56
		c1.52-1.02,3.26-1.15,5.03-1.09c1.17,0.04,2.26,0.41,3.34,0.82c0.2,0.08,0.41,0.15,0.67,0.24c0.03-0.74,0.11-1.43,0.09-2.11
		c-0.04-2.07-0.09-4.14-0.19-6.2c-0.04-0.88-0.21-1.26-1.26-1.28c-0.81-0.02-1.62-0.07-2.47-0.11c0-0.61,0-1.2,0-1.81
		c0.89-0.13,1.78-0.25,2.66-0.38c2.25-0.34,4.45-0.89,6.6-1.63c0.8-0.28,1.17-0.03,1.12,0.78c-0.33,6.09-0.35,12.18-0.34,18.27
		c0.01,2.99-0.05,5.98-0.02,8.96c0.02,1.76,0.12,3.52,0.23,5.28c0.04,0.74,0.35,1.02,1.07,1.13c0.62,0.09,1.24,0.16,1.87,0.2
		c0.32,0.02,0.46,0.1,0.45,0.44C292.94,53.35,292.96,53.79,292.96,54.28z M283.31,42.21c-0.06-1.85-0.11-3.56-0.17-5.27
		c-0.01-0.17-0.07-0.37-0.18-0.5c-1.24-1.62-2.82-2.67-4.89-2.86c-2.65-0.25-4.28,0.73-5.07,3.13c-0.62,1.9-0.73,3.86-0.62,5.83
		c0.09,1.65,0.42,3.26,1.2,4.74c1.45,2.76,4.51,3.75,7.17,2.24c1.23-0.69,2.32-1.58,2.39-3.18
		C283.21,44.92,283.26,43.5,283.31,42.21z"/>
	<path class="st0" d="M179.61,52.29c0,0.66,0,1.31,0,1.94c-3.81,0-7.6,0-11.42,0c0-0.62,0-1.28,0-1.97
		c0.59-0.06,1.16-0.16,1.73-0.18c0.94-0.04,1.56-0.51,1.93-1.34c0.77-1.73,1.57-3.46,2.28-5.22c3.46-8.58,6.91-17.16,10.34-25.75
		c0.14-0.34,0.31-0.46,0.67-0.45c0.81,0.03,1.63,0.03,2.44,0c0.45-0.02,0.67,0.11,0.86,0.55c3.13,7.36,6.28,14.71,9.44,22.06
		c1.27,2.96,2.59,5.89,3.87,8.85c0.36,0.82,0.94,1.25,1.83,1.28c0.46,0.01,0.91,0.09,1.37,0.11c0.3,0.02,0.46,0.12,0.44,0.46
		c-0.03,0.54-0.01,1.08-0.01,1.59c-5.24,0-10.42,0-15.64,0c0-0.62,0-1.27,0-1.97c0.85-0.07,1.69-0.13,2.53-0.2
		c1.15-0.09,1.46-0.45,1.1-1.55c-0.56-1.69-1.23-3.33-1.86-5c-0.19-0.51-0.37-1.02-0.61-1.51c-0.07-0.15-0.31-0.32-0.47-0.32
		c-4.02-0.02-8.05-0.02-12.07,0c-0.15,0-0.39,0.12-0.43,0.23c-0.75,2.18-1.5,4.35-2.19,6.55c-0.29,0.92,0.03,1.36,0.97,1.5
		C177.67,52.13,178.63,52.19,179.61,52.29z M189.57,40.87c-1.78-4.3-3.53-8.51-5.32-12.84c-1.72,4.33-3.39,8.54-5.1,12.84
		C182.66,40.87,186.08,40.87,189.57,40.87z"/>
	<path class="st0" d="M42.67,3.8c7.86,0.06,15.7,2.77,22.55,8.2c6.48,5.15,10.74,11.78,12.76,19.82c0.91,3.6,1.12,7.26,0.81,10.96
		c-0.38,4.56-1.56,8.9-3.69,12.96c-0.13,0.24-0.26,0.48-0.4,0.71c-0.43,0.68-1.22,0.92-1.84,0.57c-0.66-0.37-0.89-1.17-0.56-1.9
		c0.56-1.23,1.18-2.44,1.68-3.7c1.63-4.06,2.24-8.31,2.07-12.66c-0.35-8.9-3.97-16.35-10.31-22.5c-4.86-4.72-10.69-7.73-17.33-8.96
		c-10.65-1.98-20.37,0.39-28.84,7.13C13.08,19.59,9,26.39,7.56,34.64C6.32,41.7,7.49,48.4,10.71,54.78
		c0.18,0.36,0.36,0.79,0.34,1.18c-0.04,0.62-0.58,1.1-1.16,1.19c-0.57,0.1-1.17-0.16-1.46-0.79c-0.83-1.8-1.72-3.58-2.37-5.45
		c-1.64-4.65-2.1-9.46-1.63-14.35c0.49-5.18,2.13-10,4.79-14.46c5.02-8.44,12.35-13.89,21.7-16.73C34.46,4.29,38.09,3.83,42.67,3.8z
		"/>
	<path class="st0" d="M41.53,62.71c0.34-0.75,0.6-1.48,0.97-2.13c1.21-2.12,3.07-3.48,5.28-4.42c2.45-1.04,5.01-1.61,7.66-1.55
		c2.47,0.06,4.94,0.26,7.41,0.41c1.56,0.1,3.11,0.22,4.67,0.33c0.14,0.01,0.27,0,0.4,0.03c0.57,0.12,0.86,0.48,0.8,0.94
		c-0.06,0.48-0.48,0.77-1.06,0.72c-3.28-0.25-6.56-0.53-9.84-0.75c-3.36-0.23-6.65,0.1-9.75,1.53c-1.64,0.76-3.07,1.79-3.99,3.43
		c0.11-0.08,0.23-0.15,0.33-0.24c1.94-1.64,4.27-2.38,6.69-2.89c2.13-0.45,4.28-0.41,6.43-0.26c1.66,0.11,3.31,0.25,4.97,0.35
		c2.49,0.14,4.98,0.25,7.47,0.4c0.25,0.02,0.62,0.25,0.68,0.46c0.08,0.25-0.07,0.6-0.2,0.87c-0.06,0.12-0.32,0.2-0.48,0.19
		c-2.37-0.08-4.75-0.16-7.12-0.26c-3.05-0.14-6.1-0.43-9.15-0.4c-2.77,0.03-5.43,0.78-7.77,2.38c-1.05,0.72-1.89,1.61-2.41,2.77
		c0.86-0.6,1.67-1.26,2.57-1.77c1.62-0.93,3.39-1.42,5.23-1.69c2.68-0.4,5.35-0.14,8.02,0.05c3.08,0.23,6.17,0.28,9.26,0.26
		c1.12-0.01,2.24-0.02,3.36,0.01c0.25,0.01,0.54,0.1,0.74,0.25c0.44,0.33,0.33,0.99-0.17,1.19c-0.23,0.09-0.49,0.14-0.74,0.14
		c-2.85,0.02-5.71,0.08-8.56,0.01c-2.71-0.07-5.42-0.3-8.13-0.43c-2.97-0.14-5.87,0.23-8.5,1.74c-1.76,1.01-3.1,2.4-3.71,4.4
		c-0.07,0.22-0.17,0.45-0.3,0.64c-0.59,0.85-1.67,0.78-2.15-0.14c-0.06-0.12-0.12-0.24-0.16-0.37c-0.71-2.46-2.46-3.95-4.67-5.01
		c-2.44-1.17-5.06-1.41-7.7-1.25c-4.91,0.29-9.83,0.52-14.75,0.41c-0.66-0.01-1.32,0.02-1.99,0.01c-0.43-0.01-0.83-0.12-0.96-0.59
		c-0.15-0.53,0.22-0.96,0.85-0.99c0.47-0.02,0.95-0.01,1.43-0.01c2.41,0,4.82,0.04,7.23-0.02c1.97-0.05,3.93-0.24,5.89-0.36
		c3.14-0.19,6.27-0.31,9.3,0.79c1.74,0.63,3.33,1.51,4.66,2.82c0.04-0.03,0.09-0.07,0.13-0.1c-0.35-0.5-0.67-1.04-1.07-1.49
		c-1.64-1.83-3.8-2.73-6.14-3.27c-2.72-0.63-5.46-0.43-8.21-0.27c-3.67,0.22-7.35,0.39-11.03,0.58c-0.39,0.02-0.71-0.12-0.81-0.47
		c-0.07-0.24-0.02-0.58,0.11-0.79c0.11-0.17,0.42-0.27,0.65-0.28c1.46-0.08,2.92-0.1,4.37-0.19c2.22-0.14,4.43-0.31,6.64-0.47
		c3.55-0.27,7.08-0.38,10.5,0.86c1.58,0.57,3.07,1.31,4.34,2.45c-0.79-1.34-1.93-2.32-3.27-3.06c-1.85-1.02-3.85-1.59-5.94-1.82
		c-2.66-0.3-5.32-0.04-7.97,0.16c-2.15,0.17-4.29,0.36-6.44,0.52c-0.66,0.05-1.06-0.24-1.09-0.72c-0.04-0.53,0.31-0.89,0.97-0.95
		c1.44-0.12,2.87-0.23,4.31-0.33c2.16-0.16,4.33-0.36,6.49-0.45c4.26-0.18,8.32,0.49,11.88,3.02
		C39.78,58.86,40.94,60.56,41.53,62.71z"/>
	<path class="st0" d="M315.58,37.1c0-1.03-0.01-2,0.01-2.96c0-0.16,0.16-0.39,0.31-0.48c1.56-0.93,3.11-1.86,4.7-2.74
		c1.15-0.64,2.45-0.64,3.72-0.62c1.66,0.03,3.27,0.28,4.77,1.06c2.15,1.11,3.26,2.91,3.35,5.26c0.09,2.35-0.06,4.71-0.06,7.06
		c0,2.34,0.05,4.68,0.09,7.02c0,0.25,0.06,0.51,0.11,0.75c0.09,0.4,0.31,0.67,0.74,0.72c0.47,0.06,0.94,0.13,1.41,0.19
		c0.25,0.03,0.5,0.06,0.76,0.08c0,0.62,0,1.2,0,1.82c-0.3,0-0.6,0-0.89,0c-2.63,0.01-5.25,0.01-7.88,0.02
		c-0.47,0-0.59-0.11-0.55-0.6c0.06-0.93,0.13-1.85,0.2-2.9c-0.23,0.15-0.39,0.24-0.53,0.35c-1.44,1.08-2.88,2.16-4.32,3.24
		c-0.19,0.14-0.39,0.29-0.61,0.34c-1.34,0.3-2.69,0.34-4.02-0.06c-1.66-0.5-2.78-1.59-3.31-3.24c-0.52-1.62-0.56-3.28-0.11-4.91
		c0.54-1.95,1.8-3.24,3.72-3.93c2.86-1.03,5.79-1.78,8.78-2.32c0.24-0.04,0.45-0.07,0.4-0.38c-0.16-0.98-0.21-2-0.53-2.93
		c-0.64-1.88-2.17-2.64-4.05-2.78c-1.11-0.08-2.21,0-3.21,0.54c-0.22,0.12-0.41,0.35-0.52,0.58c-0.28,0.58-0.53,1.18-0.75,1.78
		c-0.12,0.31-0.27,0.37-0.57,0.28C316.33,37.25,315.91,37.17,315.58,37.1z M326.35,42.28c-0.88,0.23-1.69,0.42-2.48,0.65
		c-0.65,0.19-1.29,0.41-1.91,0.68c-1.92,0.82-2.65,2.02-2.53,4.12c0.12,2,1.6,3.18,3.57,2.83c1.25-0.22,2.28-0.85,3.07-1.84
		c0.17-0.22,0.29-0.54,0.3-0.82c0.03-1.7,0.01-3.4,0.01-5.09C326.38,42.65,326.36,42.5,326.35,42.28z"/>
	<path class="st0" d="M246.47,42.93c-0.02,3.88,2.31,7.21,5.76,8.15c2.08,0.57,4.13,0.33,6.12-0.49c0.5-0.21,0.98-0.46,1.49-0.65
		c0.13-0.05,0.4-0.04,0.46,0.05c0.16,0.2,0.37,0.52,0.31,0.7c-0.24,0.7-0.58,1.37-0.9,2.05c-0.06,0.13-0.18,0.25-0.3,0.32
		c-4.22,2.49-8.66,2.85-13.19,1.1c-2.92-1.12-4.84-3.35-5.66-6.39c-1-3.73-0.82-7.45,0.5-11.1c0.41-1.13,1.08-2.06,2.12-2.71
		c1.25-0.79,2.47-1.61,3.72-2.39c1.72-1.08,3.64-1.33,5.62-1.25c1.35,0.05,2.67,0.26,3.9,0.84c2.61,1.22,4.14,3.3,4.59,6.12
		c0.21,1.33,0.21,2.7,0.29,4.05c0.02,0.38-0.13,0.58-0.54,0.68c-2.57,0.66-5.19,0.78-7.82,0.81c-2.07,0.02-4.14,0.06-6.21,0.09
		C246.66,42.9,246.58,42.92,246.47,42.93z M254.77,40.2c0.15-1.41-0.1-3.5-0.55-4.63c-1.05-2.67-4.33-3.37-6.34-1.34
		c-1.65,1.67-1.63,3.8-1.62,5.98C249.15,40.43,251.97,40.5,254.77,40.2z"/>
	<path class="st0" d="M40.81,34.36c0-0.58,0-1.11,0-1.7c3.69,0,7.38,0,11.07,0c0.04-0.05,0.07-0.11,0.11-0.16
		c-0.52-0.61-1.04-1.22-1.58-1.81c-0.08-0.08-0.29-0.05-0.43-0.05c-3.26,0-6.52,0.01-9.78,0.01c-0.05,0-0.1-0.02-0.19-0.03
		c0-0.53,0-1.06,0-1.64c2.78,0,5.55,0,8.33,0c0.05-0.07,0.1-0.14,0.15-0.2c-0.12-0.05-0.26-0.08-0.36-0.15
		c-0.59-0.4-1.15-0.84-1.75-1.22c-0.26-0.16-0.59-0.27-0.89-0.28c-1.58-0.03-3.15-0.01-4.77-0.01c0-0.55,0-1.06,0-1.63
		c0.73,0,1.47,0,2.2,0c0.02-0.04,0.03-0.08,0.05-0.12c-0.15-0.11-0.3-0.22-0.46-0.32c-1.39-0.94-2.86-1.78-4.16-2.83
		c-2.8-2.28-4.49-5.21-4.73-8.89c-0.03-0.51,0.17-0.91,0.61-1.13c0.47-0.24,0.98-0.26,1.37,0.12c0.23,0.22,0.36,0.56,0.47,0.86
		c0.14,0.38,0.22,0.78,0.29,1.18c0.06,0.34,0.24,0.42,0.57,0.41c1.36-0.03,2.72-0.03,4.07-0.04c0.17,0,0.33,0,0.53,0
		c0,0.58,0,1.11,0,1.69c-1.47,0-2.93,0-4.49,0c0.35,0.8,0.82,1.43,1.38,1.99c0.08,0.08,0.29,0.07,0.43,0.07c0.88,0.01,1.76,0,2.67,0
		c0,0.57,0,1.11,0,1.7c-0.49,0-0.99,0-1.48,0c-0.03,0.06-0.06,0.11-0.08,0.17c0.64,0.47,1.25,1,1.93,1.4c1.99,1.17,4.02,2.25,6,3.43
		c2.3,1.37,4.43,2.94,6.02,5.15c2.62,3.63,2.59,7.58-0.08,11.16c-1.99,2.68-4.63,4.54-7.51,6.11c-0.58,0.32-1.19,0.82-1.77,0.8
		c-0.58-0.03-1.14-0.61-1.7-0.96c-0.27-0.17-0.51-0.37-0.78-0.57c0.58-0.37,1.11-0.71,1.65-1.05c-0.01-0.04-0.02-0.08-0.02-0.12
		c-1.23,0-2.47,0-3.73,0c0-0.6,0-1.12,0-1.69c0.21,0,0.39,0,0.57,0c1.95,0,3.9,0,5.86,0c0.17,0,0.37,0.01,0.49-0.07
		c1.01-0.7,2.01-1.42,3.01-2.13c-0.03-0.06-0.05-0.13-0.08-0.19c-3,0-6,0-9.03,0c0-0.61,0-1.15,0-1.75c0.19,0,0.37,0,0.55,0
		c3.19,0,6.38-0.01,9.57,0.01c0.34,0,0.57-0.1,0.76-0.37c0.98-1.36,1.4-2.84,1.1-4.51c-0.08-0.45-0.23-0.64-0.74-0.64
		c-3.51,0.03-7.03,0.02-10.54,0.02C41.3,34.36,41.08,34.36,40.81,34.36z"/>
	<path class="st0" d="M309.89,52.43c0,0.61,0,1.21,0,1.83c-4.66,0-9.3,0-13.97,0c0-0.57,0-1.15,0-1.76c0.88-0.11,1.75-0.2,2.62-0.33
		c0.69-0.1,0.94-0.3,1.02-1c0.12-1.02,0.21-2.06,0.22-3.09c0.04-2.71,0.06-5.43,0.04-8.14c-0.01-1.44-0.1-2.88-0.17-4.32
		c-0.05-0.89-0.22-1.1-1.11-1.21c-0.85-0.11-1.72-0.14-2.62-0.21c0-0.59,0-1.19,0-1.82c0.96-0.13,1.91-0.26,2.87-0.38
		c2.25-0.27,4.42-0.84,6.52-1.68c0.71-0.29,1.02-0.04,0.99,0.72c-0.09,2.51-0.2,5.02-0.23,7.52c-0.03,3.73,0,7.47,0.02,11.2
		c0,0.49,0.07,0.98,0.13,1.47c0.06,0.48,0.34,0.77,0.82,0.83C307.98,52.19,308.9,52.31,309.89,52.43z"/>
	<path class="st0" d="M62.07,66.85c-3.84,0-7.67,0-11.51,0c-1.04,0-2.06,0.16-3.02,0.61c-0.9,0.42-1.55,1.06-1.85,2.04
		c-0.17,0.55-0.35,1.11-0.65,1.59c-0.86,1.35-2.18,1.92-3.74,1.83c-1.69-0.1-3.14-0.9-3.54-2.58c-0.62-2.59-2.54-3.46-5.1-3.48
		c-4.09-0.03-8.18-0.01-12.28-0.01c-3.68,0-7.37,0-11.05,0c-0.84,0-1.35-0.38-1.46-1.05c-0.12-0.77,0.39-1.4,1.22-1.42
		c1.54-0.04,3.09-0.04,4.63-0.04c5.03,0,10.05,0.02,15.08,0.02c2.16,0,4.3,0.17,6.34,0.96c1.51,0.58,2.82,1.43,3.59,2.91
		c0.22,0.42,0.36,0.88,0.5,1.33c0.34,1.1,1.18,1.72,2.35,1.72c1.12,0,2.02-0.6,2.3-1.65c0.74-2.82,2.86-3.99,5.42-4.71
		c2.11-0.59,4.26-0.56,6.41-0.56c6.01-0.01,12.02-0.02,18.03-0.02c0.27,0,0.55,0.03,0.8,0.12c0.56,0.21,0.86,0.77,0.77,1.35
		c-0.08,0.53-0.55,0.97-1.12,1.03c-0.27,0.03-0.54,0.02-0.81,0.02C69.61,66.84,65.84,66.84,62.07,66.85
		C62.07,66.85,62.07,66.85,62.07,66.85z"/>
	<path class="st0" d="M34.75,36.16c0.6-0.09,1.19-0.21,1.78-0.25c0.25-0.01,0.61,0.1,0.74,0.28c0.13,0.18,0.16,0.61,0.03,0.78
		c-0.14,0.19-0.51,0.32-0.77,0.31c-0.59-0.01-1.19-0.13-1.75-0.2c-0.2,0.46-0.38,0.81-0.49,1.17c-0.05,0.15-0.03,0.4,0.07,0.5
		c0.32,0.34,0.71,0.61,1.04,0.95c0.17,0.18,0.36,0.44,0.34,0.65c-0.02,0.18-0.31,0.45-0.49,0.47c-0.21,0.01-0.45-0.2-0.64-0.36
		c-0.12-0.1-0.16-0.3-0.26-0.43c-0.63-0.79-0.73-0.82-1.65-0.44c-0.24,0.1-0.65,0.18-0.67,0.33c-0.08,0.4-0.09,0.87,0.05,1.24
		c0.16,0.43,0.12,0.76-0.23,0.97c-0.2,0.12-0.58,0.14-0.79,0.03c-0.36-0.2-0.45-0.57-0.24-0.97c0.04-0.07,0.07-0.16,0.07-0.24
		c0.01-0.36,0-0.71,0-1.05c-0.42-0.18-0.83-0.38-1.24-0.53c-0.12-0.04-0.33-0.04-0.41,0.03c-0.34,0.33-0.62,0.71-0.96,1.03
		c-0.19,0.18-0.46,0.38-0.68,0.37c-0.16,0-0.44-0.32-0.45-0.51c-0.01-0.21,0.21-0.45,0.37-0.63c0.12-0.13,0.32-0.18,0.46-0.3
		c0.77-0.64,0.84-1.34,0.22-2.11c-0.04-0.05-0.11-0.09-0.17-0.09c-0.64,0.03-1.27,0.09-1.91,0.09c-0.29,0-0.68-0.04-0.85-0.23
		c-0.15-0.16-0.14-0.59-0.03-0.82c0.15-0.33,0.5-0.36,0.88-0.3c0.61,0.09,1.23,0.1,1.85,0.14c0.02,0,0.04,0,0.05,0
		c0.27-0.09,0.72-1.49,0.52-1.69c-0.33-0.33-0.73-0.6-1.05-0.94c-0.17-0.18-0.33-0.45-0.32-0.67c0.01-0.16,0.29-0.44,0.46-0.44
		c0.22-0.01,0.45,0.19,0.66,0.33c0.06,0.04,0.05,0.17,0.11,0.22c0.33,0.34,0.64,0.88,1.02,0.94c0.43,0.07,1.11-0.18,1.35-0.52
		c0.23-0.35,0.12-0.99,0.03-1.48c-0.07-0.39-0.13-0.73,0.21-0.95c0.2-0.12,0.57-0.2,0.73-0.09c0.21,0.14,0.32,0.47,0.39,0.74
		c0.04,0.14-0.11,0.32-0.12,0.48c-0.02,0.34-0.02,0.67-0.01,1.01c0.01,0.52,0.5,0.34,0.75,0.51c0.12,0.09,0.28,0.12,0.4,0.21
		c0.26,0.19,0.48,0.13,0.67-0.1c0.28-0.33,0.54-0.69,0.85-0.99c0.16-0.16,0.44-0.34,0.63-0.31c0.19,0.03,0.45,0.29,0.48,0.49
		c0.03,0.19-0.17,0.43-0.3,0.62c-0.06,0.08-0.22,0.09-0.31,0.16c-0.28,0.25-0.55,0.5-0.8,0.77c-0.36,0.39,0.12,0.67,0.17,1.01
		C34.54,35.61,34.64,35.81,34.75,36.16z"/>
	<path class="st0" d="M63.69,24.14c0.6-0.09,1.19-0.22,1.78-0.25c0.25-0.01,0.61,0.1,0.74,0.29c0.13,0.18,0.16,0.61,0.03,0.78
		c-0.14,0.19-0.51,0.31-0.77,0.31c-0.59-0.01-1.19-0.13-1.75-0.2c-0.2,0.46-0.38,0.81-0.5,1.17c-0.05,0.15-0.03,0.4,0.07,0.5
		c0.32,0.34,0.72,0.61,1.04,0.95c0.17,0.18,0.36,0.45,0.34,0.66c-0.02,0.18-0.31,0.45-0.5,0.46c-0.21,0.01-0.45-0.2-0.64-0.36
		c-0.11-0.09-0.14-0.27-0.23-0.39c-0.62-0.82-0.76-0.86-1.69-0.48c-0.24,0.1-0.64,0.18-0.67,0.33c-0.08,0.4-0.09,0.87,0.06,1.24
		c0.16,0.43,0.11,0.76-0.23,0.97c-0.2,0.12-0.58,0.14-0.79,0.02c-0.36-0.2-0.45-0.57-0.24-0.97c0.04-0.07,0.07-0.16,0.07-0.24
		c0.01-0.36,0-0.71,0-1.05c-0.42-0.18-0.83-0.38-1.25-0.54c-0.12-0.04-0.33-0.04-0.41,0.03c-0.34,0.33-0.62,0.71-0.96,1.03
		c-0.19,0.18-0.46,0.37-0.69,0.37c-0.16,0-0.44-0.32-0.45-0.51c-0.01-0.21,0.21-0.45,0.37-0.63c0.12-0.13,0.32-0.18,0.46-0.3
		c0.76-0.63,0.83-1.35,0.21-2.11c-0.04-0.05-0.11-0.09-0.17-0.09c-0.64,0.03-1.27,0.09-1.91,0.09c-0.29,0-0.68-0.04-0.85-0.23
		c-0.15-0.16-0.13-0.59-0.03-0.82c0.15-0.33,0.5-0.36,0.88-0.3c0.61,0.1,1.23,0.1,1.85,0.14c0.02,0,0.04,0,0.05,0
		c0.27-0.09,0.72-1.49,0.51-1.69c-0.33-0.33-0.73-0.6-1.05-0.93c-0.17-0.18-0.33-0.45-0.32-0.67c0.01-0.16,0.29-0.44,0.46-0.44
		c0.22-0.01,0.45,0.2,0.66,0.33c0.06,0.04,0.05,0.17,0.11,0.22c0.33,0.34,0.64,0.88,1.02,0.94c0.43,0.06,1.1-0.18,1.35-0.53
		c0.24-0.32,0.07-0.95,0.06-1.44c0-0.18-0.12-0.36-0.11-0.53c0.03-0.39,0.46-0.7,0.84-0.64c0.41,0.07,0.65,0.51,0.56,0.99
		c-0.08,0.39-0.11,0.79-0.15,1.19c-0.01,0.08,0.01,0.17,0.03,0.25c0.08,0.32,1.51,0.81,1.73,0.58c0.33-0.33,0.59-0.73,0.93-1.06
		c0.16-0.16,0.44-0.34,0.63-0.31c0.19,0.03,0.45,0.29,0.48,0.49c0.03,0.19-0.17,0.43-0.3,0.62c-0.06,0.08-0.22,0.09-0.31,0.16
		c-0.28,0.25-0.55,0.5-0.8,0.77c-0.36,0.39,0.12,0.67,0.17,1.01C63.48,23.59,63.57,23.79,63.69,24.14z"/>
	<path class="st0" d="M302.71,25.92c-2.14,0-3.79-1.66-3.79-3.81c0-2.13,1.67-3.82,3.78-3.83c2.14-0.01,3.81,1.68,3.8,3.85
		C306.5,24.29,304.88,25.92,302.71,25.92z"/>
	<path class="st0" d="M25.02,24.03c-0.17,0.13-0.27,0.22-0.38,0.3c-0.33,0.26-0.97,0.2-0.93,0.85c0.02,0.43,0.04,0.87,0.12,1.3
		c0.08,0.45-0.19,0.85-0.63,0.83c-0.45-0.02-0.63-0.38-0.52-0.89c0.09-0.42,0.14-0.87,0.11-1.3c-0.01-0.18-0.22-0.39-0.39-0.5
		c-0.3-0.2-0.65-0.35-1.11-0.58c-0.32,0.37-0.67,0.83-1.08,1.22c-0.18,0.17-0.53,0.32-0.74,0.27c-0.21-0.06-0.41-0.37-0.48-0.61
		c-0.1-0.34,0.13-0.65,0.46-0.67c0.5-0.03,0.79-0.35,1.09-0.65c0.13-0.13,0.24-0.42,0.19-0.58c-0.05-0.17-0.29-0.4-0.46-0.41
		c-0.45-0.03-0.9,0.08-1.35,0.07c-0.26-0.01-0.57-0.09-0.75-0.25c-0.11-0.1-0.07-0.45,0.01-0.64c0.14-0.31,0.44-0.29,0.75-0.23
		c0.43,0.08,0.87,0.14,1.3,0.12c0.17-0.01,0.38-0.22,0.48-0.39c0.16-0.26,0.04-0.47-0.24-0.62c-0.37-0.2-0.62-0.61-1.16-0.49
		c-0.13,0.03-0.48-0.32-0.49-0.52c-0.02-0.23,0.16-0.57,0.35-0.69c0.17-0.11,0.55-0.08,0.73,0.05c0.47,0.33,0.87,0.75,1.23,1.08
		c0.56-0.27,1-0.47,1.43-0.7c0.11-0.06,0.22-0.22,0.22-0.33c0-0.45-0.09-0.9-0.07-1.36c0.01-0.26,0.09-0.57,0.25-0.75
		c0.1-0.11,0.45-0.07,0.64,0.01c0.31,0.14,0.32,0.44,0.23,0.75c-0.06,0.19-0.13,0.39-0.15,0.59c-0.08,0.84,0.03,0.82,0.71,1.28
		c0.69,0.46,1.1,0.18,1.54-0.27c0.16-0.17,0.24-0.43,0.41-0.58c0.21-0.18,0.52-0.41,0.73-0.36c0.22,0.04,0.51,0.39,0.52,0.61
		c0.01,0.22-0.26,0.64-0.44,0.66c-0.67,0.07-0.95,0.62-1.36,0.99c-0.25,0.23-0.03,0.79,0.32,0.82c0.47,0.03,0.95,0.03,1.41-0.06
		c0.35-0.07,0.64-0.03,0.8,0.24c0.1,0.16,0.08,0.47-0.01,0.65c-0.16,0.33-0.47,0.32-0.79,0.22c-0.27-0.08-0.56-0.13-0.84-0.14
		c-0.73-0.02-0.81,0.04-0.96,0.73c-0.03,0.15,0.03,0.4,0.14,0.48c0.38,0.26,0.81,0.45,1.19,0.7c0.2,0.13,0.48,0.35,0.48,0.54
		c0,0.23-0.19,0.58-0.39,0.67c-0.2,0.09-0.69-0.02-0.74-0.15C26.17,24.6,25.43,24.53,25.02,24.03z"/>
	<path class="st0" d="M37.47,54.55c1.53,0,2.9,0,4.28,0c0,0.6,0,1.11,0,1.71c-0.68,0-1.35-0.04-2.02,0.01
		c-0.52,0.04-0.91-0.15-1.35-0.39c-1.15-0.63-2.36-1.17-3.61-1.78c0.88-1.77,2.25-3.2,3.92-4.43c0.57,0.38,1.14,0.76,1.75,1.16
		c-0.07,0.09-0.14,0.17-0.29,0.34c0.58,0,1.08,0,1.6,0c0,0.6,0,1.12,0,1.72c-0.64,0-1.3,0.06-1.94-0.01c-0.76-0.09-1.3,0.17-1.7,0.8
		C37.95,53.93,37.75,54.17,37.47,54.55z"/>
	<path class="st0" d="M22.77,48.51c-1.19,0-2.25-1.05-2.25-2.24c0.01-1.2,1.02-2.2,2.26-2.23c1.16-0.03,2.28,1.09,2.29,2.28
		C25.09,47.45,23.98,48.51,22.77,48.51z"/>
	<path class="st0" d="M58.08,46.24c0.02-1.24,1.03-2.23,2.25-2.2c1.18,0.03,2.24,1.1,2.24,2.27c0,1.19-1.13,2.24-2.38,2.22
		C59,48.5,58.06,47.48,58.08,46.24z"/>
	<path class="st0" d="M63.69,36.38c-1.12,0-2.13-0.99-2.13-2.1c-0.01-1.2,0.98-2.18,2.21-2.17c1.16,0,2.17,1.04,2.14,2.19
		C65.89,35.41,64.84,36.39,63.69,36.38z"/>
	<path class="st0" d="M34.77,24.78c1.16-0.01,2.14,0.96,2.14,2.12c0,1.17-0.99,2.15-2.18,2.15c-1.13,0-2.11-0.98-2.11-2.11
		C32.62,25.75,33.57,24.78,34.77,24.78z"/>
	<path class="st0" d="M21.84,34.27c-0.01,1.16-1.02,2.13-2.21,2.12c-1.12-0.01-2.09-1.01-2.08-2.14c0.01-1.19,0.98-2.14,2.19-2.13
		C20.88,32.12,21.84,33.1,21.84,34.27z"/>
	<path class="st0" d="M55.46,13.77c0,1.17-1,2.15-2.19,2.14c-1.12-0.01-2.1-0.99-2.1-2.12c0-1.19,0.96-2.15,2.17-2.15
		C54.49,11.63,55.46,12.6,55.46,13.77z"/>
	<path class="st0" d="M51.48,19.26c0.74,0,1.26,0.48,1.26,1.17c0.01,0.68-0.54,1.26-1.2,1.27c-0.67,0.01-1.29-0.61-1.27-1.27
		C50.3,19.72,50.77,19.26,51.48,19.26z"/>
	<path class="st0" d="M51.57,49.2c0.01-0.67,0.53-1.19,1.2-1.19c0.63-0.01,1.19,0.56,1.2,1.21c0.01,0.63-0.6,1.21-1.26,1.22
		C52.06,50.44,51.57,49.9,51.57,49.2z"/>
	<path class="st0" d="M31.61,49.23c0,0.68-0.53,1.2-1.24,1.21c-0.64,0.01-1.16-0.54-1.16-1.23c0-0.65,0.56-1.2,1.21-1.18
		C31.09,48.03,31.61,48.57,31.61,49.23z"/>
	<path class="st0" d="M42.55,49.01c0,0.63-0.57,1.16-1.23,1.15c-0.66-0.01-1.17-0.54-1.15-1.22c0.01-0.61,0.56-1.13,1.2-1.13
		C42.01,47.8,42.55,48.35,42.55,49.01z"/>
	<path class="st0" d="M15.22,36.99c-0.01,0.64-0.53,1.13-1.18,1.13c-0.64,0-1.11-0.52-1.09-1.2c0.02-0.61,0.56-1.14,1.15-1.12
		C14.76,35.82,15.23,36.31,15.22,36.99z"/>
	<path class="st0" d="M42.72,37.17c0.01,0.62-0.53,1.15-1.17,1.15c-0.61,0-1.16-0.56-1.16-1.18c0-0.59,0.54-1.11,1.16-1.12
		C42.19,36.01,42.71,36.51,42.72,37.17z"/>
	<path class="st0" d="M68.65,38.06c-0.63-0.04-1.1-0.56-1.07-1.19c0.03-0.63,0.58-1.12,1.23-1.09c0.63,0.03,1.11,0.56,1.07,1.18
		C69.84,37.61,69.29,38.1,68.65,38.06z"/>
	<path class="st0" d="M13.18,46.07c-0.61,0-1.11-0.51-1.12-1.14c-0.01-0.62,0.5-1.12,1.13-1.12c0.66,0,1.11,0.46,1.11,1.12
		C14.29,45.58,13.81,46.07,13.18,46.07z"/>
	<path class="st0" d="M69.65,46.07c-0.6-0.01-1.05-0.49-1.05-1.13c0-0.66,0.5-1.14,1.17-1.12c0.62,0.01,1.07,0.49,1.07,1.12
		C70.83,45.57,70.3,46.08,69.65,46.07z"/>
	<path class="st0" d="M65,51.08c-0.58-0.01-1.09-0.53-1.07-1.12c0.01-0.6,0.55-1.12,1.15-1.12c0.61,0,1.09,0.52,1.08,1.16
		C66.15,50.61,65.64,51.09,65,51.08z"/>
	<path class="st0" d="M19.18,49.99c-0.01,0.6-0.53,1.08-1.17,1.07c-0.6,0-1.07-0.5-1.06-1.13c0.01-0.6,0.56-1.11,1.17-1.08
		C18.73,48.89,19.19,49.38,19.18,49.99z"/>
	<path class="st0" d="M63.02,39.25c0,0.6-0.51,1.11-1.09,1.1c-0.62-0.02-1.1-0.52-1.09-1.16c0.01-0.6,0.5-1.08,1.11-1.07
		C62.56,38.14,63.02,38.63,63.02,39.25z"/>
	<path class="st0" d="M29.17,15.64c0.01-0.46,0.39-0.83,0.85-0.81c0.46,0.02,0.8,0.36,0.79,0.81c0,0.5-0.38,0.87-0.86,0.86
		C29.49,16.5,29.16,16.13,29.17,15.64z"/>
	<path class="st0" d="M14.78,30.06c-0.41,0.01-0.72-0.28-0.73-0.68c-0.01-0.43,0.33-0.82,0.73-0.82c0.39,0,0.74,0.35,0.74,0.75
		C15.51,29.73,15.19,30.05,14.78,30.06z"/>
	<path class="st0" d="M69.87,29.34c0.01,0.39-0.33,0.76-0.72,0.77c-0.4,0.01-0.73-0.28-0.76-0.66c-0.03-0.43,0.3-0.79,0.74-0.8
		C69.51,28.65,69.86,28.97,69.87,29.34z"/>
	<path class="st0" d="M32.53,21.5c0,0.39-0.35,0.73-0.75,0.73c-0.41,0-0.7-0.32-0.7-0.76c0-0.42,0.28-0.7,0.69-0.7
		C32.19,20.77,32.53,21.1,32.53,21.5z"/>
	<path class="st0" d="M46.88,16.26c0.01-0.41,0.29-0.69,0.7-0.69c0.41,0,0.75,0.34,0.74,0.74c-0.01,0.39-0.36,0.73-0.76,0.72
		C47.16,17.03,46.87,16.71,46.88,16.26z"/>
	<path class="st0" d="M23.31,28.3c0.34,0.03,0.62,0.21,0.64,0.61c0.02,0.41-0.25,0.61-0.63,0.65c-0.36,0.03-0.66-0.26-0.64-0.62
		C22.71,28.58,22.88,28.32,23.31,28.3z"/>
	<path class="st0" d="M17.96,42.41c-0.22,0.16-0.43,0.43-0.67,0.46c-0.32,0.04-0.57-0.2-0.56-0.57c0.01-0.36,0.23-0.62,0.56-0.58
		c0.24,0.03,0.44,0.3,0.66,0.46C17.96,42.25,17.96,42.33,17.96,42.41z"/>
	<path class="st0" d="M65.67,42.35c-0.23,0.15-0.44,0.39-0.69,0.43c-0.36,0.06-0.57-0.23-0.54-0.57c0.03-0.34,0.25-0.6,0.61-0.52
		c0.23,0.05,0.42,0.28,0.62,0.43C65.68,42.2,65.67,42.27,65.67,42.35z"/>
</g>
</svg>
